<?xml version="1.0" encoding="utf-8" standalone="no"?>
<!DOCTYPE svg PUBLIC "-//W3C//DTD SVG 1.1//EN"
  "http://www.w3.org/Graphics/SVG/1.1/DTD/svg11.dtd">
<!-- Created with matplotlib (https://matplotlib.org/) -->
<svg height="345.6pt" version="1.1" viewBox="0 0 460.8 345.6" width="460.8pt" xmlns="http://www.w3.org/2000/svg" xmlns:xlink="http://www.w3.org/1999/xlink">
 <defs>
  <style type="text/css">
*{stroke-linecap:butt;stroke-linejoin:round;}
  </style>
 </defs>
 <g id="figure_1">
  <g id="patch_1">
   <path d="M 0 345.6 
L 460.8 345.6 
L 460.8 0 
L 0 0 
z
" style="fill:#ffffff;"/>
  </g>
  <g id="axes_1">
   <g id="patch_2">
    <path d="M 57.6 307.584 
L 414.72 307.584 
L 414.72 41.472 
L 57.6 41.472 
z
" style="fill:#ffffff;"/>
   </g>
   <g id="matplotlib.axis_1">
    <g id="xtick_1">
     <g id="line2d_1">
      <path clip-path="url(#pa419e4b145)" d="M 73.832727 307.584 
L 73.832727 41.472 
" style="fill:none;stroke:#b0b0b0;stroke-linecap:square;stroke-width:0.8;"/>
     </g>
     <g id="line2d_2">
      <defs>
       <path d="M 0 0 
L 0 3.5 
" id="m683a56e9ba" style="stroke:#000000;stroke-width:0.8;"/>
      </defs>
      <g>
       <use style="stroke:#000000;stroke-width:0.8;" x="73.832727" xlink:href="#m683a56e9ba" y="307.584"/>
      </g>
     </g>
     <g id="text_1">
      <!-- 0 -->
      <defs>
       <path d="M 31.78125 66.40625 
Q 24.171875 66.40625 20.328125 58.90625 
Q 16.5 51.421875 16.5 36.375 
Q 16.5 21.390625 20.328125 13.890625 
Q 24.171875 6.390625 31.78125 6.390625 
Q 39.453125 6.390625 43.28125 13.890625 
Q 47.125 21.390625 47.125 36.375 
Q 47.125 51.421875 43.28125 58.90625 
Q 39.453125 66.40625 31.78125 66.40625 
z
M 31.78125 74.21875 
Q 44.046875 74.21875 50.515625 64.515625 
Q 56.984375 54.828125 56.984375 36.375 
Q 56.984375 17.96875 50.515625 8.265625 
Q 44.046875 -1.421875 31.78125 -1.421875 
Q 19.53125 -1.421875 13.0625 8.265625 
Q 6.59375 17.96875 6.59375 36.375 
Q 6.59375 54.828125 13.0625 64.515625 
Q 19.53125 74.21875 31.78125 74.21875 
z
" id="DejaVuSans-48"/>
      </defs>
      <g transform="translate(70.651477 322.182437)scale(0.1 -0.1)">
       <use xlink:href="#DejaVuSans-48"/>
      </g>
     </g>
    </g>
    <g id="xtick_2">
     <g id="line2d_3">
      <path clip-path="url(#pa419e4b145)" d="M 127.941818 307.584 
L 127.941818 41.472 
" style="fill:none;stroke:#b0b0b0;stroke-linecap:square;stroke-width:0.8;"/>
     </g>
     <g id="line2d_4">
      <g>
       <use style="stroke:#000000;stroke-width:0.8;" x="127.941818" xlink:href="#m683a56e9ba" y="307.584"/>
      </g>
     </g>
     <g id="text_2">
      <!-- 50 -->
      <defs>
       <path d="M 10.796875 72.90625 
L 49.515625 72.90625 
L 49.515625 64.59375 
L 19.828125 64.59375 
L 19.828125 46.734375 
Q 21.96875 47.46875 24.109375 47.828125 
Q 26.265625 48.1875 28.421875 48.1875 
Q 40.625 48.1875 47.75 41.5 
Q 54.890625 34.8125 54.890625 23.390625 
Q 54.890625 11.625 47.5625 5.09375 
Q 40.234375 -1.421875 26.90625 -1.421875 
Q 22.3125 -1.421875 17.546875 -0.640625 
Q 12.796875 0.140625 7.71875 1.703125 
L 7.71875 11.625 
Q 12.109375 9.234375 16.796875 8.0625 
Q 21.484375 6.890625 26.703125 6.890625 
Q 35.15625 6.890625 40.078125 11.328125 
Q 45.015625 15.765625 45.015625 23.390625 
Q 45.015625 31 40.078125 35.4375 
Q 35.15625 39.890625 26.703125 39.890625 
Q 22.75 39.890625 18.8125 39.015625 
Q 14.890625 38.140625 10.796875 36.28125 
z
" id="DejaVuSans-53"/>
      </defs>
      <g transform="translate(121.579318 322.182437)scale(0.1 -0.1)">
       <use xlink:href="#DejaVuSans-53"/>
       <use x="63.623047" xlink:href="#DejaVuSans-48"/>
      </g>
     </g>
    </g>
    <g id="xtick_3">
     <g id="line2d_5">
      <path clip-path="url(#pa419e4b145)" d="M 182.050909 307.584 
L 182.050909 41.472 
" style="fill:none;stroke:#b0b0b0;stroke-linecap:square;stroke-width:0.8;"/>
     </g>
     <g id="line2d_6">
      <g>
       <use style="stroke:#000000;stroke-width:0.8;" x="182.050909" xlink:href="#m683a56e9ba" y="307.584"/>
      </g>
     </g>
     <g id="text_3">
      <!-- 100 -->
      <defs>
       <path d="M 12.40625 8.296875 
L 28.515625 8.296875 
L 28.515625 63.921875 
L 10.984375 60.40625 
L 10.984375 69.390625 
L 28.421875 72.90625 
L 38.28125 72.90625 
L 38.28125 8.296875 
L 54.390625 8.296875 
L 54.390625 0 
L 12.40625 0 
z
" id="DejaVuSans-49"/>
      </defs>
      <g transform="translate(172.507159 322.182437)scale(0.1 -0.1)">
       <use xlink:href="#DejaVuSans-49"/>
       <use x="63.623047" xlink:href="#DejaVuSans-48"/>
       <use x="127.246094" xlink:href="#DejaVuSans-48"/>
      </g>
     </g>
    </g>
    <g id="xtick_4">
     <g id="line2d_7">
      <path clip-path="url(#pa419e4b145)" d="M 236.16 307.584 
L 236.16 41.472 
" style="fill:none;stroke:#b0b0b0;stroke-linecap:square;stroke-width:0.8;"/>
     </g>
     <g id="line2d_8">
      <g>
       <use style="stroke:#000000;stroke-width:0.8;" x="236.16" xlink:href="#m683a56e9ba" y="307.584"/>
      </g>
     </g>
     <g id="text_4">
      <!-- 150 -->
      <g transform="translate(226.61625 322.182437)scale(0.1 -0.1)">
       <use xlink:href="#DejaVuSans-49"/>
       <use x="63.623047" xlink:href="#DejaVuSans-53"/>
       <use x="127.246094" xlink:href="#DejaVuSans-48"/>
      </g>
     </g>
    </g>
    <g id="xtick_5">
     <g id="line2d_9">
      <path clip-path="url(#pa419e4b145)" d="M 290.269091 307.584 
L 290.269091 41.472 
" style="fill:none;stroke:#b0b0b0;stroke-linecap:square;stroke-width:0.8;"/>
     </g>
     <g id="line2d_10">
      <g>
       <use style="stroke:#000000;stroke-width:0.8;" x="290.269091" xlink:href="#m683a56e9ba" y="307.584"/>
      </g>
     </g>
     <g id="text_5">
      <!-- 200 -->
      <defs>
       <path d="M 19.1875 8.296875 
L 53.609375 8.296875 
L 53.609375 0 
L 7.328125 0 
L 7.328125 8.296875 
Q 12.9375 14.109375 22.625 23.890625 
Q 32.328125 33.6875 34.8125 36.53125 
Q 39.546875 41.84375 41.421875 45.53125 
Q 43.3125 49.21875 43.3125 52.78125 
Q 43.3125 58.59375 39.234375 62.25 
Q 35.15625 65.921875 28.609375 65.921875 
Q 23.96875 65.921875 18.8125 64.3125 
Q 13.671875 62.703125 7.8125 59.421875 
L 7.8125 69.390625 
Q 13.765625 71.78125 18.9375 73 
Q 24.125 74.21875 28.421875 74.21875 
Q 39.75 74.21875 46.484375 68.546875 
Q 53.21875 62.890625 53.21875 53.421875 
Q 53.21875 48.921875 51.53125 44.890625 
Q 49.859375 40.875 45.40625 35.40625 
Q 44.1875 33.984375 37.640625 27.21875 
Q 31.109375 20.453125 19.1875 8.296875 
z
" id="DejaVuSans-50"/>
      </defs>
      <g transform="translate(280.725341 322.182437)scale(0.1 -0.1)">
       <use xlink:href="#DejaVuSans-50"/>
       <use x="63.623047" xlink:href="#DejaVuSans-48"/>
       <use x="127.246094" xlink:href="#DejaVuSans-48"/>
      </g>
     </g>
    </g>
    <g id="xtick_6">
     <g id="line2d_11">
      <path clip-path="url(#pa419e4b145)" d="M 344.378182 307.584 
L 344.378182 41.472 
" style="fill:none;stroke:#b0b0b0;stroke-linecap:square;stroke-width:0.8;"/>
     </g>
     <g id="line2d_12">
      <g>
       <use style="stroke:#000000;stroke-width:0.8;" x="344.378182" xlink:href="#m683a56e9ba" y="307.584"/>
      </g>
     </g>
     <g id="text_6">
      <!-- 250 -->
      <g transform="translate(334.834432 322.182437)scale(0.1 -0.1)">
       <use xlink:href="#DejaVuSans-50"/>
       <use x="63.623047" xlink:href="#DejaVuSans-53"/>
       <use x="127.246094" xlink:href="#DejaVuSans-48"/>
      </g>
     </g>
    </g>
    <g id="xtick_7">
     <g id="line2d_13">
      <path clip-path="url(#pa419e4b145)" d="M 398.487273 307.584 
L 398.487273 41.472 
" style="fill:none;stroke:#b0b0b0;stroke-linecap:square;stroke-width:0.8;"/>
     </g>
     <g id="line2d_14">
      <g>
       <use style="stroke:#000000;stroke-width:0.8;" x="398.487273" xlink:href="#m683a56e9ba" y="307.584"/>
      </g>
     </g>
     <g id="text_7">
      <!-- 300 -->
      <defs>
       <path d="M 40.578125 39.3125 
Q 47.65625 37.796875 51.625 33 
Q 55.609375 28.21875 55.609375 21.1875 
Q 55.609375 10.40625 48.1875 4.484375 
Q 40.765625 -1.421875 27.09375 -1.421875 
Q 22.515625 -1.421875 17.65625 -0.515625 
Q 12.796875 0.390625 7.625 2.203125 
L 7.625 11.71875 
Q 11.71875 9.328125 16.59375 8.109375 
Q 21.484375 6.890625 26.8125 6.890625 
Q 36.078125 6.890625 40.9375 10.546875 
Q 45.796875 14.203125 45.796875 21.1875 
Q 45.796875 27.640625 41.28125 31.265625 
Q 36.765625 34.90625 28.71875 34.90625 
L 20.21875 34.90625 
L 20.21875 43.015625 
L 29.109375 43.015625 
Q 36.375 43.015625 40.234375 45.921875 
Q 44.09375 48.828125 44.09375 54.296875 
Q 44.09375 59.90625 40.109375 62.90625 
Q 36.140625 65.921875 28.71875 65.921875 
Q 24.65625 65.921875 20.015625 65.03125 
Q 15.375 64.15625 9.8125 62.3125 
L 9.8125 71.09375 
Q 15.4375 72.65625 20.34375 73.4375 
Q 25.25 74.21875 29.59375 74.21875 
Q 40.828125 74.21875 47.359375 69.109375 
Q 53.90625 64.015625 53.90625 55.328125 
Q 53.90625 49.265625 50.4375 45.09375 
Q 46.96875 40.921875 40.578125 39.3125 
z
" id="DejaVuSans-51"/>
      </defs>
      <g transform="translate(388.943523 322.182437)scale(0.1 -0.1)">
       <use xlink:href="#DejaVuSans-51"/>
       <use x="63.623047" xlink:href="#DejaVuSans-48"/>
       <use x="127.246094" xlink:href="#DejaVuSans-48"/>
      </g>
     </g>
    </g>
    <g id="text_8">
     <!-- Wealth -->
     <defs>
      <path d="M 3.328125 72.90625 
L 13.28125 72.90625 
L 28.609375 11.28125 
L 43.890625 72.90625 
L 54.984375 72.90625 
L 70.3125 11.28125 
L 85.59375 72.90625 
L 95.609375 72.90625 
L 77.296875 0 
L 64.890625 0 
L 49.515625 63.28125 
L 33.984375 0 
L 21.578125 0 
z
" id="DejaVuSans-87"/>
      <path d="M 56.203125 29.59375 
L 56.203125 25.203125 
L 14.890625 25.203125 
Q 15.484375 15.921875 20.484375 11.0625 
Q 25.484375 6.203125 34.421875 6.203125 
Q 39.59375 6.203125 44.453125 7.46875 
Q 49.3125 8.734375 54.109375 11.28125 
L 54.109375 2.78125 
Q 49.265625 0.734375 44.1875 -0.34375 
Q 39.109375 -1.421875 33.890625 -1.421875 
Q 20.796875 -1.421875 13.15625 6.1875 
Q 5.515625 13.8125 5.515625 26.8125 
Q 5.515625 40.234375 12.765625 48.109375 
Q 20.015625 56 32.328125 56 
Q 43.359375 56 49.78125 48.890625 
Q 56.203125 41.796875 56.203125 29.59375 
z
M 47.21875 32.234375 
Q 47.125 39.59375 43.09375 43.984375 
Q 39.0625 48.390625 32.421875 48.390625 
Q 24.90625 48.390625 20.390625 44.140625 
Q 15.875 39.890625 15.1875 32.171875 
z
" id="DejaVuSans-101"/>
      <path d="M 34.28125 27.484375 
Q 23.390625 27.484375 19.1875 25 
Q 14.984375 22.515625 14.984375 16.5 
Q 14.984375 11.71875 18.140625 8.90625 
Q 21.296875 6.109375 26.703125 6.109375 
Q 34.1875 6.109375 38.703125 11.40625 
Q 43.21875 16.703125 43.21875 25.484375 
L 43.21875 27.484375 
z
M 52.203125 31.203125 
L 52.203125 0 
L 43.21875 0 
L 43.21875 8.296875 
Q 40.140625 3.328125 35.546875 0.953125 
Q 30.953125 -1.421875 24.3125 -1.421875 
Q 15.921875 -1.421875 10.953125 3.296875 
Q 6 8.015625 6 15.921875 
Q 6 25.140625 12.171875 29.828125 
Q 18.359375 34.515625 30.609375 34.515625 
L 43.21875 34.515625 
L 43.21875 35.40625 
Q 43.21875 41.609375 39.140625 45 
Q 35.0625 48.390625 27.6875 48.390625 
Q 23 48.390625 18.546875 47.265625 
Q 14.109375 46.140625 10.015625 43.890625 
L 10.015625 52.203125 
Q 14.9375 54.109375 19.578125 55.046875 
Q 24.21875 56 28.609375 56 
Q 40.484375 56 46.34375 49.84375 
Q 52.203125 43.703125 52.203125 31.203125 
z
" id="DejaVuSans-97"/>
      <path d="M 9.421875 75.984375 
L 18.40625 75.984375 
L 18.40625 0 
L 9.421875 0 
z
" id="DejaVuSans-108"/>
      <path d="M 18.3125 70.21875 
L 18.3125 54.6875 
L 36.8125 54.6875 
L 36.8125 47.703125 
L 18.3125 47.703125 
L 18.3125 18.015625 
Q 18.3125 11.328125 20.140625 9.421875 
Q 21.96875 7.515625 27.59375 7.515625 
L 36.8125 7.515625 
L 36.8125 0 
L 27.59375 0 
Q 17.1875 0 13.234375 3.875 
Q 9.28125 7.765625 9.28125 18.015625 
L 9.28125 47.703125 
L 2.6875 47.703125 
L 2.6875 54.6875 
L 9.28125 54.6875 
L 9.28125 70.21875 
z
" id="DejaVuSans-116"/>
      <path d="M 54.890625 33.015625 
L 54.890625 0 
L 45.90625 0 
L 45.90625 32.71875 
Q 45.90625 40.484375 42.875 44.328125 
Q 39.84375 48.1875 33.796875 48.1875 
Q 26.515625 48.1875 22.3125 43.546875 
Q 18.109375 38.921875 18.109375 30.90625 
L 18.109375 0 
L 9.078125 0 
L 9.078125 75.984375 
L 18.109375 75.984375 
L 18.109375 46.1875 
Q 21.34375 51.125 25.703125 53.5625 
Q 30.078125 56 35.796875 56 
Q 45.21875 56 50.046875 50.171875 
Q 54.890625 44.34375 54.890625 33.015625 
z
" id="DejaVuSans-104"/>
     </defs>
     <g transform="translate(218.561563 335.860562)scale(0.1 -0.1)">
      <use xlink:href="#DejaVuSans-87"/>
      <use x="98.798828" xlink:href="#DejaVuSans-101"/>
      <use x="160.322266" xlink:href="#DejaVuSans-97"/>
      <use x="221.601562" xlink:href="#DejaVuSans-108"/>
      <use x="249.384766" xlink:href="#DejaVuSans-116"/>
      <use x="288.59375" xlink:href="#DejaVuSans-104"/>
     </g>
    </g>
   </g>
   <g id="matplotlib.axis_2">
    <g id="ytick_1">
     <g id="line2d_15">
      <path clip-path="url(#pa419e4b145)" d="M 57.6 295.488 
L 414.72 295.488 
" style="fill:none;stroke:#b0b0b0;stroke-linecap:square;stroke-width:0.8;"/>
     </g>
     <g id="line2d_16">
      <defs>
       <path d="M 0 0 
L -3.5 0 
" id="md1bdcb02c0" style="stroke:#000000;stroke-width:0.8;"/>
      </defs>
      <g>
       <use style="stroke:#000000;stroke-width:0.8;" x="57.6" xlink:href="#md1bdcb02c0" y="295.488"/>
      </g>
     </g>
     <g id="text_9">
      <!-- 0 -->
      <g transform="translate(44.2375 299.287219)scale(0.1 -0.1)">
       <use xlink:href="#DejaVuSans-48"/>
      </g>
     </g>
    </g>
    <g id="ytick_2">
     <g id="line2d_17">
      <path clip-path="url(#pa419e4b145)" d="M 57.6 242.237845 
L 414.72 242.237845 
" style="fill:none;stroke:#b0b0b0;stroke-linecap:square;stroke-width:0.8;"/>
     </g>
     <g id="line2d_18">
      <g>
       <use style="stroke:#000000;stroke-width:0.8;" x="57.6" xlink:href="#md1bdcb02c0" y="242.237845"/>
      </g>
     </g>
     <g id="text_10">
      <!-- 10 -->
      <g transform="translate(37.875 246.037063)scale(0.1 -0.1)">
       <use xlink:href="#DejaVuSans-49"/>
       <use x="63.623047" xlink:href="#DejaVuSans-48"/>
      </g>
     </g>
    </g>
    <g id="ytick_3">
     <g id="line2d_19">
      <path clip-path="url(#pa419e4b145)" d="M 57.6 188.987689 
L 414.72 188.987689 
" style="fill:none;stroke:#b0b0b0;stroke-linecap:square;stroke-width:0.8;"/>
     </g>
     <g id="line2d_20">
      <g>
       <use style="stroke:#000000;stroke-width:0.8;" x="57.6" xlink:href="#md1bdcb02c0" y="188.987689"/>
      </g>
     </g>
     <g id="text_11">
      <!-- 20 -->
      <g transform="translate(37.875 192.786908)scale(0.1 -0.1)">
       <use xlink:href="#DejaVuSans-50"/>
       <use x="63.623047" xlink:href="#DejaVuSans-48"/>
      </g>
     </g>
    </g>
    <g id="ytick_4">
     <g id="line2d_21">
      <path clip-path="url(#pa419e4b145)" d="M 57.6 135.737534 
L 414.72 135.737534 
" style="fill:none;stroke:#b0b0b0;stroke-linecap:square;stroke-width:0.8;"/>
     </g>
     <g id="line2d_22">
      <g>
       <use style="stroke:#000000;stroke-width:0.8;" x="57.6" xlink:href="#md1bdcb02c0" y="135.737534"/>
      </g>
     </g>
     <g id="text_12">
      <!-- 30 -->
      <g transform="translate(37.875 139.536753)scale(0.1 -0.1)">
       <use xlink:href="#DejaVuSans-51"/>
       <use x="63.623047" xlink:href="#DejaVuSans-48"/>
      </g>
     </g>
    </g>
    <g id="ytick_5">
     <g id="line2d_23">
      <path clip-path="url(#pa419e4b145)" d="M 57.6 82.487379 
L 414.72 82.487379 
" style="fill:none;stroke:#b0b0b0;stroke-linecap:square;stroke-width:0.8;"/>
     </g>
     <g id="line2d_24">
      <g>
       <use style="stroke:#000000;stroke-width:0.8;" x="57.6" xlink:href="#md1bdcb02c0" y="82.487379"/>
      </g>
     </g>
     <g id="text_13">
      <!-- 40 -->
      <defs>
       <path d="M 37.796875 64.3125 
L 12.890625 25.390625 
L 37.796875 25.390625 
z
M 35.203125 72.90625 
L 47.609375 72.90625 
L 47.609375 25.390625 
L 58.015625 25.390625 
L 58.015625 17.1875 
L 47.609375 17.1875 
L 47.609375 0 
L 37.796875 0 
L 37.796875 17.1875 
L 4.890625 17.1875 
L 4.890625 26.703125 
z
" id="DejaVuSans-52"/>
      </defs>
      <g transform="translate(37.875 86.286597)scale(0.1 -0.1)">
       <use xlink:href="#DejaVuSans-52"/>
       <use x="63.623047" xlink:href="#DejaVuSans-48"/>
      </g>
     </g>
    </g>
    <g id="text_14">
     <!-- Consumption -->
     <defs>
      <path d="M 64.40625 67.28125 
L 64.40625 56.890625 
Q 59.421875 61.53125 53.78125 63.8125 
Q 48.140625 66.109375 41.796875 66.109375 
Q 29.296875 66.109375 22.65625 58.46875 
Q 16.015625 50.828125 16.015625 36.375 
Q 16.015625 21.96875 22.65625 14.328125 
Q 29.296875 6.6875 41.796875 6.6875 
Q 48.140625 6.6875 53.78125 8.984375 
Q 59.421875 11.28125 64.40625 15.921875 
L 64.40625 5.609375 
Q 59.234375 2.09375 53.4375 0.328125 
Q 47.65625 -1.421875 41.21875 -1.421875 
Q 24.65625 -1.421875 15.125 8.703125 
Q 5.609375 18.84375 5.609375 36.375 
Q 5.609375 53.953125 15.125 64.078125 
Q 24.65625 74.21875 41.21875 74.21875 
Q 47.75 74.21875 53.53125 72.484375 
Q 59.328125 70.75 64.40625 67.28125 
z
" id="DejaVuSans-67"/>
      <path d="M 30.609375 48.390625 
Q 23.390625 48.390625 19.1875 42.75 
Q 14.984375 37.109375 14.984375 27.296875 
Q 14.984375 17.484375 19.15625 11.84375 
Q 23.34375 6.203125 30.609375 6.203125 
Q 37.796875 6.203125 41.984375 11.859375 
Q 46.1875 17.53125 46.1875 27.296875 
Q 46.1875 37.015625 41.984375 42.703125 
Q 37.796875 48.390625 30.609375 48.390625 
z
M 30.609375 56 
Q 42.328125 56 49.015625 48.375 
Q 55.71875 40.765625 55.71875 27.296875 
Q 55.71875 13.875 49.015625 6.21875 
Q 42.328125 -1.421875 30.609375 -1.421875 
Q 18.84375 -1.421875 12.171875 6.21875 
Q 5.515625 13.875 5.515625 27.296875 
Q 5.515625 40.765625 12.171875 48.375 
Q 18.84375 56 30.609375 56 
z
" id="DejaVuSans-111"/>
      <path d="M 54.890625 33.015625 
L 54.890625 0 
L 45.90625 0 
L 45.90625 32.71875 
Q 45.90625 40.484375 42.875 44.328125 
Q 39.84375 48.1875 33.796875 48.1875 
Q 26.515625 48.1875 22.3125 43.546875 
Q 18.109375 38.921875 18.109375 30.90625 
L 18.109375 0 
L 9.078125 0 
L 9.078125 54.6875 
L 18.109375 54.6875 
L 18.109375 46.1875 
Q 21.34375 51.125 25.703125 53.5625 
Q 30.078125 56 35.796875 56 
Q 45.21875 56 50.046875 50.171875 
Q 54.890625 44.34375 54.890625 33.015625 
z
" id="DejaVuSans-110"/>
      <path d="M 44.28125 53.078125 
L 44.28125 44.578125 
Q 40.484375 46.53125 36.375 47.5 
Q 32.28125 48.484375 27.875 48.484375 
Q 21.1875 48.484375 17.84375 46.4375 
Q 14.5 44.390625 14.5 40.28125 
Q 14.5 37.15625 16.890625 35.375 
Q 19.28125 33.59375 26.515625 31.984375 
L 29.59375 31.296875 
Q 39.15625 29.25 43.1875 25.515625 
Q 47.21875 21.78125 47.21875 15.09375 
Q 47.21875 7.46875 41.1875 3.015625 
Q 35.15625 -1.421875 24.609375 -1.421875 
Q 20.21875 -1.421875 15.453125 -0.5625 
Q 10.6875 0.296875 5.421875 2 
L 5.421875 11.28125 
Q 10.40625 8.6875 15.234375 7.390625 
Q 20.0625 6.109375 24.8125 6.109375 
Q 31.15625 6.109375 34.5625 8.28125 
Q 37.984375 10.453125 37.984375 14.40625 
Q 37.984375 18.0625 35.515625 20.015625 
Q 33.0625 21.96875 24.703125 23.78125 
L 21.578125 24.515625 
Q 13.234375 26.265625 9.515625 29.90625 
Q 5.8125 33.546875 5.8125 39.890625 
Q 5.8125 47.609375 11.28125 51.796875 
Q 16.75 56 26.8125 56 
Q 31.78125 56 36.171875 55.265625 
Q 40.578125 54.546875 44.28125 53.078125 
z
" id="DejaVuSans-115"/>
      <path d="M 8.5 21.578125 
L 8.5 54.6875 
L 17.484375 54.6875 
L 17.484375 21.921875 
Q 17.484375 14.15625 20.5 10.265625 
Q 23.53125 6.390625 29.59375 6.390625 
Q 36.859375 6.390625 41.078125 11.03125 
Q 45.3125 15.671875 45.3125 23.6875 
L 45.3125 54.6875 
L 54.296875 54.6875 
L 54.296875 0 
L 45.3125 0 
L 45.3125 8.40625 
Q 42.046875 3.421875 37.71875 1 
Q 33.40625 -1.421875 27.6875 -1.421875 
Q 18.265625 -1.421875 13.375 4.4375 
Q 8.5 10.296875 8.5 21.578125 
z
M 31.109375 56 
z
" id="DejaVuSans-117"/>
      <path d="M 52 44.1875 
Q 55.375 50.25 60.0625 53.125 
Q 64.75 56 71.09375 56 
Q 79.640625 56 84.28125 50.015625 
Q 88.921875 44.046875 88.921875 33.015625 
L 88.921875 0 
L 79.890625 0 
L 79.890625 32.71875 
Q 79.890625 40.578125 77.09375 44.375 
Q 74.3125 48.1875 68.609375 48.1875 
Q 61.625 48.1875 57.5625 43.546875 
Q 53.515625 38.921875 53.515625 30.90625 
L 53.515625 0 
L 44.484375 0 
L 44.484375 32.71875 
Q 44.484375 40.625 41.703125 44.40625 
Q 38.921875 48.1875 33.109375 48.1875 
Q 26.21875 48.1875 22.15625 43.53125 
Q 18.109375 38.875 18.109375 30.90625 
L 18.109375 0 
L 9.078125 0 
L 9.078125 54.6875 
L 18.109375 54.6875 
L 18.109375 46.1875 
Q 21.1875 51.21875 25.484375 53.609375 
Q 29.78125 56 35.6875 56 
Q 41.65625 56 45.828125 52.96875 
Q 50 49.953125 52 44.1875 
z
" id="DejaVuSans-109"/>
      <path d="M 18.109375 8.203125 
L 18.109375 -20.796875 
L 9.078125 -20.796875 
L 9.078125 54.6875 
L 18.109375 54.6875 
L 18.109375 46.390625 
Q 20.953125 51.265625 25.265625 53.625 
Q 29.59375 56 35.59375 56 
Q 45.5625 56 51.78125 48.09375 
Q 58.015625 40.1875 58.015625 27.296875 
Q 58.015625 14.40625 51.78125 6.484375 
Q 45.5625 -1.421875 35.59375 -1.421875 
Q 29.59375 -1.421875 25.265625 0.953125 
Q 20.953125 3.328125 18.109375 8.203125 
z
M 48.6875 27.296875 
Q 48.6875 37.203125 44.609375 42.84375 
Q 40.53125 48.484375 33.40625 48.484375 
Q 26.265625 48.484375 22.1875 42.84375 
Q 18.109375 37.203125 18.109375 27.296875 
Q 18.109375 17.390625 22.1875 11.75 
Q 26.265625 6.109375 33.40625 6.109375 
Q 40.53125 6.109375 44.609375 11.75 
Q 48.6875 17.390625 48.6875 27.296875 
z
" id="DejaVuSans-112"/>
      <path d="M 9.421875 54.6875 
L 18.40625 54.6875 
L 18.40625 0 
L 9.421875 0 
z
M 9.421875 75.984375 
L 18.40625 75.984375 
L 18.40625 64.59375 
L 9.421875 64.59375 
z
" id="DejaVuSans-105"/>
     </defs>
     <g transform="translate(31.795312 207.642844)rotate(-90)scale(0.1 -0.1)">
      <use xlink:href="#DejaVuSans-67"/>
      <use x="69.824219" xlink:href="#DejaVuSans-111"/>
      <use x="131.005859" xlink:href="#DejaVuSans-110"/>
      <use x="194.384766" xlink:href="#DejaVuSans-115"/>
      <use x="246.484375" xlink:href="#DejaVuSans-117"/>
      <use x="309.863281" xlink:href="#DejaVuSans-109"/>
      <use x="407.275391" xlink:href="#DejaVuSans-112"/>
      <use x="470.751953" xlink:href="#DejaVuSans-116"/>
      <use x="509.960938" xlink:href="#DejaVuSans-105"/>
      <use x="537.744141" xlink:href="#DejaVuSans-111"/>
      <use x="598.925781" xlink:href="#DejaVuSans-110"/>
     </g>
    </g>
   </g>
   <g id="line2d_25">
    <path clip-path="url(#pa419e4b145)" d="M 73.832727 295.488 
L 77.112066 279.372398 
L 80.391405 263.256796 
L 83.670744 247.141194 
L 86.950083 231.025592 
L 90.229421 218.190147 
L 93.50876 217.067329 
L 96.788099 215.976139 
L 100.067438 214.913232 
L 103.346777 213.87585 
L 106.626116 212.861664 
L 109.905455 211.868702 
L 113.184793 210.895281 
L 116.464132 209.939884 
L 119.743471 209.001247 
L 123.02281 208.078241 
L 126.302149 207.169777 
L 129.581488 206.275021 
L 132.860826 205.393078 
L 136.140165 204.523266 
L 139.419504 203.66493 
L 142.698843 202.817345 
L 145.978182 201.98005 
L 149.257521 201.1525 
L 152.53686 200.334195 
L 155.816198 199.524674 
L 159.095537 198.723591 
L 162.374876 197.930631 
L 165.654215 197.145287 
L 168.933554 196.367201 
L 172.212893 195.596296 
L 175.492231 194.832128 
L 178.77157 194.074398 
L 182.050909 193.322893 
L 185.330248 192.577501 
L 188.609587 191.837803 
L 191.888926 191.103761 
L 195.168264 190.37496 
L 198.447603 189.650993 
L 201.726942 188.931932 
L 205.006281 188.217446 
L 208.28562 187.508869 
L 211.564959 186.804133 
L 214.844298 186.103535 
L 218.123636 185.406369 
L 221.402975 184.713151 
L 224.682314 184.026642 
L 227.961653 183.344784 
L 231.240992 182.665511 
L 234.520331 181.988833 
L 237.799669 181.314937 
L 241.079008 180.64386 
L 244.358347 179.975442 
L 247.637686 179.309202 
L 250.917025 178.644955 
L 254.196364 177.982686 
L 257.475702 177.322353 
L 260.755041 176.663919 
L 264.03438 176.007233 
L 267.313719 175.352261 
L 270.593058 174.6988 
L 273.872397 174.046794 
L 277.151736 173.396198 
L 280.431074 172.746931 
L 283.710413 172.098916 
L 286.989752 171.45244 
L 290.269091 170.80706 
L 293.54843 170.162709 
L 296.827769 169.519408 
L 300.107107 168.877527 
L 303.386446 168.236502 
L 306.665785 167.59627 
L 309.945124 166.957412 
L 313.224463 166.319348 
L 316.503802 165.681929 
L 319.78314 165.045916 
L 323.062479 164.410465 
L 326.341818 163.775839 
L 329.621157 163.142271 
L 332.900496 162.509123 
L 336.179835 161.877254 
L 339.459174 161.245806 
L 342.738512 160.615281 
L 346.017851 159.985442 
L 349.29719 159.356261 
L 352.576529 158.72795 
L 355.855868 158.100102 
L 359.135207 157.473226 
L 362.414545 156.846702 
L 365.693884 156.221173 
L 368.973223 155.595965 
L 372.252562 154.971697 
L 375.531901 154.347803 
L 378.81124 153.724699 
L 382.090579 153.102099 
L 385.369917 152.480061 
L 388.649256 151.85875 
L 391.928595 151.237685 
L 395.207934 150.617662 
L 398.487273 149.99764 
" style="fill:none;stroke:#1f77b4;stroke-linecap:square;stroke-width:1.5;"/>
   </g>
   <g id="line2d_26">
    <path clip-path="url(#pa419e4b145)" d="M 73.832727 295.488 
L 77.112066 279.373437 
L 80.391405 263.258874 
L 83.670744 247.144311 
L 86.950083 231.029748 
L 90.229421 214.915185 
L 93.50876 198.800622 
L 96.788099 191.830252 
L 100.067438 190.794212 
L 103.346777 189.77635 
L 106.626116 188.775382 
L 109.905455 187.790157 
L 113.184793 186.819679 
L 116.464132 185.863057 
L 119.743471 184.919454 
L 123.02281 183.98814 
L 126.302149 183.068456 
L 129.581488 182.159817 
L 132.860826 181.26165 
L 136.140165 180.373436 
L 139.419504 179.494684 
L 142.698843 178.625009 
L 145.978182 177.764053 
L 149.257521 176.91129 
L 152.53686 176.066491 
L 155.816198 175.22934 
L 159.095537 174.399427 
L 162.374876 173.576609 
L 165.654215 172.760499 
L 168.933554 171.950886 
L 172.212893 171.147554 
L 175.492231 170.350188 
L 178.77157 169.558792 
L 182.050909 168.772805 
L 185.330248 167.992513 
L 188.609587 167.217417 
L 191.888926 166.447367 
L 195.168264 165.682195 
L 198.447603 164.921788 
L 201.726942 164.166062 
L 205.006281 163.4148 
L 208.28562 162.667806 
L 211.564959 161.925185 
L 214.844298 161.186571 
L 218.123636 160.451804 
L 221.402975 159.721258 
L 224.682314 158.994128 
L 227.961653 158.270986 
L 231.240992 157.551239 
L 234.520331 156.834696 
L 237.799669 156.121774 
L 241.079008 155.411794 
L 244.358347 154.704652 
L 247.637686 154.000629 
L 250.917025 153.30048 
L 254.196364 152.603277 
L 257.475702 151.908649 
L 260.755041 151.216665 
L 264.03438 150.527189 
L 267.313719 149.839968 
L 270.593058 149.155002 
L 273.872397 148.474495 
L 277.151736 147.79867 
L 280.431074 147.1248 
L 283.710413 146.452538 
L 286.989752 145.781785 
L 290.269091 145.1125 
L 293.54843 144.444876 
L 296.827769 143.778856 
L 300.107107 143.114272 
L 303.386446 142.450945 
L 306.665785 141.788719 
L 309.945124 141.12812 
L 313.224463 140.468554 
L 316.503802 139.809923 
L 319.78314 139.152229 
L 323.062479 138.495892 
L 326.341818 137.840322 
L 329.621157 137.185457 
L 332.900496 136.531774 
L 336.179835 135.878743 
L 339.459174 135.226266 
L 342.738512 134.574947 
L 346.017851 133.924097 
L 349.29719 133.273934 
L 352.576529 132.624618 
L 355.855868 131.975654 
L 359.135207 131.327695 
L 362.414545 130.680108 
L 365.693884 130.033204 
L 368.973223 129.386886 
L 372.252562 128.741007 
L 375.531901 128.095881 
L 378.81124 127.451017 
L 382.090579 126.807014 
L 385.369917 126.163153 
L 388.649256 125.520196 
L 391.928595 124.877319 
L 395.207934 124.235334 
L 398.487273 123.593421 
" style="fill:none;stroke:#ff7f0e;stroke-linecap:square;stroke-width:1.5;"/>
   </g>
   <g id="line2d_27">
    <path clip-path="url(#pa419e4b145)" d="M 73.832727 295.488 
L 77.112066 279.374768 
L 80.391405 263.261536 
L 83.670744 247.148305 
L 86.950083 231.035073 
L 90.229421 214.921841 
L 93.50876 198.808609 
L 96.788099 189.517002 
L 100.067438 188.416202 
L 103.346777 187.334013 
L 106.626116 186.269138 
L 109.905455 185.220432 
L 113.184793 184.186881 
L 116.464132 183.167556 
L 119.743471 182.161649 
L 123.02281 181.168409 
L 126.302149 180.187155 
L 129.581488 179.217242 
L 132.860826 178.258174 
L 136.140165 177.309353 
L 139.419504 176.370273 
L 142.698843 175.440587 
L 145.978182 174.519835 
L 149.257521 173.607612 
L 152.53686 172.703574 
L 155.816198 171.80732 
L 159.095537 170.918665 
L 162.374876 170.037218 
L 165.654215 169.162758 
L 168.933554 168.294907 
L 172.212893 167.433547 
L 175.492231 166.578353 
L 178.77157 165.729277 
L 182.050909 164.885869 
L 185.330248 164.048059 
L 188.609587 163.215562 
L 191.888926 162.388327 
L 195.168264 161.566254 
L 198.447603 160.749015 
L 201.726942 159.936432 
L 205.006281 159.128396 
L 208.28562 158.324885 
L 211.564959 157.525744 
L 214.844298 156.730718 
L 218.123636 155.939963 
L 221.402975 155.152922 
L 224.682314 154.369636 
L 227.961653 153.589776 
L 231.240992 152.813395 
L 234.520331 152.04024 
L 237.799669 151.271567 
L 241.079008 150.506009 
L 244.358347 149.743266 
L 247.637686 148.983719 
L 250.917025 148.227016 
L 254.196364 147.47286 
L 257.475702 146.721217 
L 260.755041 145.973269 
L 264.03438 145.230819 
L 267.313719 144.491386 
L 270.593058 143.753669 
L 273.872397 143.017672 
L 277.151736 142.283378 
L 280.431074 141.550912 
L 283.710413 140.820105 
L 286.989752 140.090766 
L 290.269091 139.36285 
L 293.54843 138.636297 
L 296.827769 137.910971 
L 300.107107 137.186865 
L 303.386446 136.464169 
L 306.665785 135.74252 
L 309.945124 135.021831 
L 313.224463 134.302035 
L 316.503802 133.58329 
L 319.78314 132.865593 
L 323.062479 132.148681 
L 326.341818 131.432504 
L 329.621157 130.717433 
L 332.900496 130.003103 
L 336.179835 129.289388 
L 339.459174 128.576666 
L 342.738512 127.864682 
L 346.017851 127.153208 
L 349.29719 126.44277 
L 352.576529 125.732875 
L 355.855868 125.023559 
L 359.135207 124.31518 
L 362.414545 123.607146 
L 365.693884 122.900052 
L 368.973223 122.193418 
L 372.252562 121.487426 
L 375.531901 120.782131 
L 378.81124 120.077239 
L 382.090579 119.373227 
L 385.369917 118.669436 
L 388.649256 117.966638 
L 391.928595 117.263935 
L 395.207934 116.562303 
L 398.487273 115.8607 
" style="fill:none;stroke:#2ca02c;stroke-linecap:square;stroke-width:1.5;"/>
   </g>
   <g id="line2d_28">
    <path clip-path="url(#pa419e4b145)" d="M 73.832727 295.488 
L 77.112066 279.375085 
L 80.391405 263.26217 
L 83.670744 247.149255 
L 86.950083 231.03634 
L 90.229421 214.923425 
L 93.50876 198.81051 
L 96.788099 195.905336 
L 100.067438 194.611698 
L 103.346777 193.343915 
L 106.626116 192.100104 
L 109.905455 190.878581 
L 113.184793 189.677932 
L 116.464132 188.496811 
L 119.743471 187.334035 
L 123.02281 186.188584 
L 126.302149 185.059409 
L 129.581488 183.945635 
L 132.860826 182.846472 
L 136.140165 181.761071 
L 139.419504 180.688822 
L 142.698843 179.628955 
L 145.978182 178.580844 
L 149.257521 177.54407 
L 152.53686 176.518058 
L 155.816198 175.502306 
L 159.095537 174.496262 
L 162.374876 173.499471 
L 165.654215 172.511729 
L 168.933554 171.532624 
L 172.212893 170.561791 
L 175.492231 169.598634 
L 178.77157 168.64298 
L 182.050909 167.694504 
L 185.330248 166.753636 
L 188.609587 165.819201 
L 191.888926 164.891381 
L 195.168264 163.969493 
L 198.447603 163.05346 
L 201.726942 162.142998 
L 205.006281 161.238612 
L 208.28562 160.340015 
L 211.564959 159.446117 
L 214.844298 158.557672 
L 218.123636 157.673426 
L 221.402975 156.793517 
L 224.682314 155.917604 
L 227.961653 155.047438 
L 231.240992 154.184489 
L 234.520331 153.325573 
L 237.799669 152.469681 
L 241.079008 151.6169 
L 244.358347 150.766988 
L 247.637686 149.919933 
L 250.917025 149.075503 
L 254.196364 148.23354 
L 257.475702 147.393851 
L 260.755041 146.556445 
L 264.03438 145.721246 
L 267.313719 144.888105 
L 270.593058 144.056955 
L 273.872397 143.227728 
L 277.151736 142.400344 
L 280.431074 141.574767 
L 283.710413 140.750928 
L 286.989752 139.928753 
L 290.269091 139.108174 
L 293.54843 138.28913 
L 296.827769 137.47171 
L 300.107107 136.655987 
L 303.386446 135.841652 
L 306.665785 135.028644 
L 309.945124 134.216903 
L 313.224463 133.406729 
L 316.503802 132.597984 
L 319.78314 131.790365 
L 323.062479 130.983802 
L 326.341818 130.178959 
L 329.621157 129.37513 
L 332.900496 128.572209 
L 336.179835 127.770854 
L 339.459174 126.970499 
L 342.738512 126.170901 
L 346.017851 125.372985 
L 349.29719 124.57576 
L 352.576529 123.779537 
L 355.855868 122.984591 
L 359.135207 122.190155 
L 362.414545 121.397282 
L 365.693884 120.60493 
L 368.973223 119.813706 
L 372.252562 119.023341 
L 375.531901 118.233763 
L 378.81124 117.445281 
L 382.090579 116.657325 
L 385.369917 115.870617 
L 388.649256 115.084264 
L 391.928595 114.299224 
L 395.207934 113.514462 
L 398.487273 112.73098 
" style="fill:none;stroke:#d62728;stroke-linecap:square;stroke-width:1.5;"/>
   </g>
   <g id="line2d_29">
    <path clip-path="url(#pa419e4b145)" d="M 73.832727 295.488 
L 77.112066 279.367707 
L 80.391405 263.247414 
L 83.670744 247.127121 
L 86.950083 231.006828 
L 90.229421 214.886535 
L 93.50876 198.766242 
L 96.788099 182.645949 
L 100.067438 166.525656 
L 103.346777 160.181357 
L 106.626116 157.990738 
L 109.905455 156.018672 
L 113.184793 154.163389 
L 116.464132 152.387642 
L 119.743471 150.672277 
L 123.02281 149.005722 
L 126.302149 147.380264 
L 129.581488 145.79052 
L 132.860826 144.232354 
L 136.140165 142.702638 
L 139.419504 141.198697 
L 142.698843 139.718567 
L 145.978182 138.2604 
L 149.257521 136.822721 
L 152.53686 135.404137 
L 155.816198 134.003668 
L 159.095537 132.620129 
L 162.374876 131.252553 
L 165.654215 129.900427 
L 168.933554 128.562578 
L 172.212893 127.238707 
L 175.492231 125.928026 
L 178.77157 124.630039 
L 182.050909 123.34441 
L 185.330248 122.070281 
L 188.609587 120.807613 
L 191.888926 119.555467 
L 195.168264 118.313912 
L 198.447603 117.082548 
L 201.726942 115.861263 
L 205.006281 114.649555 
L 208.28562 113.446945 
L 211.564959 112.252943 
L 214.844298 111.067752 
L 218.123636 109.890496 
L 221.402975 108.721832 
L 224.682314 107.563499 
L 227.961653 106.412785 
L 231.240992 105.269751 
L 234.520331 104.13333 
L 237.799669 103.004244 
L 241.079008 101.881184 
L 244.358347 100.764312 
L 247.637686 99.654098 
L 250.917025 98.554882 
L 254.196364 97.468022 
L 257.475702 96.38765 
L 260.755041 95.313307 
L 264.03438 94.244732 
L 267.313719 93.181042 
L 270.593058 92.121888 
L 273.872397 91.067161 
L 277.151736 90.016704 
L 280.431074 88.970265 
L 283.710413 87.927611 
L 286.989752 86.888662 
L 290.269091 85.85351 
L 293.54843 84.823871 
L 296.827769 83.801586 
L 300.107107 82.783925 
L 303.386446 81.770204 
L 306.665785 80.760061 
L 309.945124 79.753204 
L 313.224463 78.750037 
L 316.503802 77.749994 
L 319.78314 76.752526 
L 323.062479 75.757494 
L 326.341818 74.765734 
L 329.621157 73.776662 
L 332.900496 72.789607 
L 336.179835 71.804912 
L 339.459174 70.823415 
L 342.738512 69.84424 
L 346.017851 68.868378 
L 349.29719 67.896442 
L 352.576529 66.926337 
L 355.855868 65.959463 
L 359.135207 64.994762 
L 362.414545 64.031662 
L 365.693884 63.07176 
L 368.973223 62.112801 
L 372.252562 61.156705 
L 375.531901 60.201927 
L 378.81124 59.249248 
L 382.090579 58.298362 
L 385.369917 57.34891 
L 388.649256 56.401521 
L 391.928595 55.455136 
L 395.207934 54.511138 
L 398.487273 53.568 
" style="fill:none;stroke:#9467bd;stroke-linecap:square;stroke-width:1.5;"/>
   </g>
   <g id="line2d_30">
    <path clip-path="url(#pa419e4b145)" d="M 73.832727 295.488 
L 77.112066 279.367627 
L 80.391405 263.247254 
L 83.670744 247.126881 
L 86.950083 231.006508 
L 90.229421 214.886135 
L 93.50876 202.834124 
L 96.788099 199.653178 
L 100.067438 197.119168 
L 103.346777 194.842137 
L 106.626116 192.718707 
L 109.905455 190.702842 
L 113.184793 188.769219 
L 116.464132 186.902108 
L 119.743471 185.090736 
L 123.02281 183.327198 
L 126.302149 181.605753 
L 129.581488 179.921349 
L 132.860826 178.270397 
L 136.140165 176.649761 
L 139.419504 175.056621 
L 142.698843 173.488542 
L 145.978182 171.944076 
L 149.257521 170.420994 
L 152.53686 168.91843 
L 155.816198 167.434718 
L 159.095537 165.968824 
L 162.374876 164.519919 
L 165.654215 163.087998 
L 168.933554 161.671636 
L 172.212893 160.269581 
L 175.492231 158.880314 
L 178.77157 157.512114 
L 182.050909 156.160089 
L 185.330248 154.819791 
L 188.609587 153.489844 
L 191.888926 152.169361 
L 195.168264 150.857529 
L 198.447603 149.553938 
L 201.726942 148.258023 
L 205.006281 146.970877 
L 208.28562 145.693079 
L 211.564959 144.42253 
L 214.844298 143.159035 
L 218.123636 141.901072 
L 221.402975 140.649355 
L 224.682314 139.402453 
L 227.961653 138.160059 
L 231.240992 136.922359 
L 234.520331 135.689494 
L 237.799669 134.461137 
L 241.079008 133.237091 
L 244.358347 132.017047 
L 247.637686 130.800848 
L 250.917025 129.588182 
L 254.196364 128.3788 
L 257.475702 127.172425 
L 260.755041 125.968852 
L 264.03438 124.767934 
L 267.313719 123.569545 
L 270.593058 122.373603 
L 273.872397 121.179999 
L 277.151736 119.988569 
L 280.431074 118.799604 
L 283.710413 117.612899 
L 286.989752 116.428038 
L 290.269091 115.244859 
L 293.54843 114.063293 
L 296.827769 112.883778 
L 300.107107 111.705535 
L 303.386446 110.528485 
L 306.665785 109.353109 
L 309.945124 108.179126 
L 313.224463 107.006091 
L 316.503802 105.834497 
L 319.78314 104.664103 
L 323.062479 103.49442 
L 326.341818 102.326272 
L 329.621157 101.15884 
L 332.900496 99.992271 
L 336.179835 98.826863 
L 339.459174 97.661844 
L 342.738512 96.498185 
L 346.017851 95.334813 
L 349.29719 94.172457 
L 352.576529 93.010546 
L 355.855868 91.849408 
L 359.135207 90.68879 
L 362.414545 89.528801 
L 365.693884 88.36932 
L 368.973223 87.210397 
L 372.252562 86.051911 
L 375.531901 84.893987 
L 378.81124 83.736376 
L 382.090579 82.579393 
L 385.369917 81.422544 
L 388.649256 80.266405 
L 391.928595 79.110266 
L 395.207934 77.954835 
L 398.487273 76.799472 
" style="fill:none;stroke:#8c564b;stroke-linecap:square;stroke-width:1.5;"/>
   </g>
   <g id="patch_3">
    <path d="M 57.6 307.584 
L 57.6 41.472 
" style="fill:none;stroke:#000000;stroke-linecap:square;stroke-linejoin:miter;stroke-width:0.8;"/>
   </g>
   <g id="patch_4">
    <path d="M 414.72 307.584 
L 414.72 41.472 
" style="fill:none;stroke:#000000;stroke-linecap:square;stroke-linejoin:miter;stroke-width:0.8;"/>
   </g>
   <g id="patch_5">
    <path d="M 57.6 307.584 
L 414.72 307.584 
" style="fill:none;stroke:#000000;stroke-linecap:square;stroke-linejoin:miter;stroke-width:0.8;"/>
   </g>
   <g id="patch_6">
    <path d="M 57.6 41.472 
L 414.72 41.472 
" style="fill:none;stroke:#000000;stroke-linecap:square;stroke-linejoin:miter;stroke-width:0.8;"/>
   </g>
   <g id="legend_1">
    <g id="patch_7">
     <path d="M 64.6 137.54075 
L 143.403125 137.54075 
Q 145.403125 137.54075 145.403125 135.54075 
L 145.403125 48.472 
Q 145.403125 46.472 143.403125 46.472 
L 64.6 46.472 
Q 62.6 46.472 62.6 48.472 
L 62.6 135.54075 
Q 62.6 137.54075 64.6 137.54075 
z
" style="fill:#ffffff;opacity:0.8;stroke:#cccccc;stroke-linejoin:miter;"/>
    </g>
    <g id="line2d_31">
     <path d="M 66.6 54.570438 
L 86.6 54.570438 
" style="fill:none;stroke:#1f77b4;stroke-linecap:square;stroke-width:1.5;"/>
    </g>
    <g id="line2d_32"/>
    <g id="text_15">
     <!-- Age = 30 -->
     <defs>
      <path d="M 34.1875 63.1875 
L 20.796875 26.90625 
L 47.609375 26.90625 
z
M 28.609375 72.90625 
L 39.796875 72.90625 
L 67.578125 0 
L 57.328125 0 
L 50.6875 18.703125 
L 17.828125 18.703125 
L 11.1875 0 
L 0.78125 0 
z
" id="DejaVuSans-65"/>
      <path d="M 45.40625 27.984375 
Q 45.40625 37.75 41.375 43.109375 
Q 37.359375 48.484375 30.078125 48.484375 
Q 22.859375 48.484375 18.828125 43.109375 
Q 14.796875 37.75 14.796875 27.984375 
Q 14.796875 18.265625 18.828125 12.890625 
Q 22.859375 7.515625 30.078125 7.515625 
Q 37.359375 7.515625 41.375 12.890625 
Q 45.40625 18.265625 45.40625 27.984375 
z
M 54.390625 6.78125 
Q 54.390625 -7.171875 48.1875 -13.984375 
Q 42 -20.796875 29.203125 -20.796875 
Q 24.46875 -20.796875 20.265625 -20.09375 
Q 16.0625 -19.390625 12.109375 -17.921875 
L 12.109375 -9.1875 
Q 16.0625 -11.328125 19.921875 -12.34375 
Q 23.78125 -13.375 27.78125 -13.375 
Q 36.625 -13.375 41.015625 -8.765625 
Q 45.40625 -4.15625 45.40625 5.171875 
L 45.40625 9.625 
Q 42.625 4.78125 38.28125 2.390625 
Q 33.9375 0 27.875 0 
Q 17.828125 0 11.671875 7.65625 
Q 5.515625 15.328125 5.515625 27.984375 
Q 5.515625 40.671875 11.671875 48.328125 
Q 17.828125 56 27.875 56 
Q 33.9375 56 38.28125 53.609375 
Q 42.625 51.21875 45.40625 46.390625 
L 45.40625 54.6875 
L 54.390625 54.6875 
z
" id="DejaVuSans-103"/>
      <path id="DejaVuSans-32"/>
      <path d="M 10.59375 45.40625 
L 73.1875 45.40625 
L 73.1875 37.203125 
L 10.59375 37.203125 
z
M 10.59375 25.484375 
L 73.1875 25.484375 
L 73.1875 17.1875 
L 10.59375 17.1875 
z
" id="DejaVuSans-61"/>
     </defs>
     <g transform="translate(94.6 58.070438)scale(0.1 -0.1)">
      <use xlink:href="#DejaVuSans-65"/>
      <use x="68.408203" xlink:href="#DejaVuSans-103"/>
      <use x="131.884766" xlink:href="#DejaVuSans-101"/>
      <use x="193.408203" xlink:href="#DejaVuSans-32"/>
      <use x="225.195312" xlink:href="#DejaVuSans-61"/>
      <use x="308.984375" xlink:href="#DejaVuSans-32"/>
      <use x="340.771484" xlink:href="#DejaVuSans-51"/>
      <use x="404.394531" xlink:href="#DejaVuSans-48"/>
     </g>
    </g>
    <g id="line2d_33">
     <path d="M 66.6 69.248563 
L 86.6 69.248563 
" style="fill:none;stroke:#ff7f0e;stroke-linecap:square;stroke-width:1.5;"/>
    </g>
    <g id="line2d_34"/>
    <g id="text_16">
     <!-- Age = 40 -->
     <g transform="translate(94.6 72.748563)scale(0.1 -0.1)">
      <use xlink:href="#DejaVuSans-65"/>
      <use x="68.408203" xlink:href="#DejaVuSans-103"/>
      <use x="131.884766" xlink:href="#DejaVuSans-101"/>
      <use x="193.408203" xlink:href="#DejaVuSans-32"/>
      <use x="225.195312" xlink:href="#DejaVuSans-61"/>
      <use x="308.984375" xlink:href="#DejaVuSans-32"/>
      <use x="340.771484" xlink:href="#DejaVuSans-52"/>
      <use x="404.394531" xlink:href="#DejaVuSans-48"/>
     </g>
    </g>
    <g id="line2d_35">
     <path d="M 66.6 83.926688 
L 86.6 83.926688 
" style="fill:none;stroke:#2ca02c;stroke-linecap:square;stroke-width:1.5;"/>
    </g>
    <g id="line2d_36"/>
    <g id="text_17">
     <!-- Age = 50 -->
     <g transform="translate(94.6 87.426688)scale(0.1 -0.1)">
      <use xlink:href="#DejaVuSans-65"/>
      <use x="68.408203" xlink:href="#DejaVuSans-103"/>
      <use x="131.884766" xlink:href="#DejaVuSans-101"/>
      <use x="193.408203" xlink:href="#DejaVuSans-32"/>
      <use x="225.195312" xlink:href="#DejaVuSans-61"/>
      <use x="308.984375" xlink:href="#DejaVuSans-32"/>
      <use x="340.771484" xlink:href="#DejaVuSans-53"/>
      <use x="404.394531" xlink:href="#DejaVuSans-48"/>
     </g>
    </g>
    <g id="line2d_37">
     <path d="M 66.6 98.604813 
L 86.6 98.604813 
" style="fill:none;stroke:#d62728;stroke-linecap:square;stroke-width:1.5;"/>
    </g>
    <g id="line2d_38"/>
    <g id="text_18">
     <!-- Age = 60 -->
     <defs>
      <path d="M 33.015625 40.375 
Q 26.375 40.375 22.484375 35.828125 
Q 18.609375 31.296875 18.609375 23.390625 
Q 18.609375 15.53125 22.484375 10.953125 
Q 26.375 6.390625 33.015625 6.390625 
Q 39.65625 6.390625 43.53125 10.953125 
Q 47.40625 15.53125 47.40625 23.390625 
Q 47.40625 31.296875 43.53125 35.828125 
Q 39.65625 40.375 33.015625 40.375 
z
M 52.59375 71.296875 
L 52.59375 62.3125 
Q 48.875 64.0625 45.09375 64.984375 
Q 41.3125 65.921875 37.59375 65.921875 
Q 27.828125 65.921875 22.671875 59.328125 
Q 17.53125 52.734375 16.796875 39.40625 
Q 19.671875 43.65625 24.015625 45.921875 
Q 28.375 48.1875 33.59375 48.1875 
Q 44.578125 48.1875 50.953125 41.515625 
Q 57.328125 34.859375 57.328125 23.390625 
Q 57.328125 12.15625 50.6875 5.359375 
Q 44.046875 -1.421875 33.015625 -1.421875 
Q 20.359375 -1.421875 13.671875 8.265625 
Q 6.984375 17.96875 6.984375 36.375 
Q 6.984375 53.65625 15.1875 63.9375 
Q 23.390625 74.21875 37.203125 74.21875 
Q 40.921875 74.21875 44.703125 73.484375 
Q 48.484375 72.75 52.59375 71.296875 
z
" id="DejaVuSans-54"/>
     </defs>
     <g transform="translate(94.6 102.104813)scale(0.1 -0.1)">
      <use xlink:href="#DejaVuSans-65"/>
      <use x="68.408203" xlink:href="#DejaVuSans-103"/>
      <use x="131.884766" xlink:href="#DejaVuSans-101"/>
      <use x="193.408203" xlink:href="#DejaVuSans-32"/>
      <use x="225.195312" xlink:href="#DejaVuSans-61"/>
      <use x="308.984375" xlink:href="#DejaVuSans-32"/>
      <use x="340.771484" xlink:href="#DejaVuSans-54"/>
      <use x="404.394531" xlink:href="#DejaVuSans-48"/>
     </g>
    </g>
    <g id="line2d_39">
     <path d="M 66.6 113.282938 
L 86.6 113.282938 
" style="fill:none;stroke:#9467bd;stroke-linecap:square;stroke-width:1.5;"/>
    </g>
    <g id="line2d_40"/>
    <g id="text_19">
     <!-- Age = 70 -->
     <defs>
      <path d="M 8.203125 72.90625 
L 55.078125 72.90625 
L 55.078125 68.703125 
L 28.609375 0 
L 18.3125 0 
L 43.21875 64.59375 
L 8.203125 64.59375 
z
" id="DejaVuSans-55"/>
     </defs>
     <g transform="translate(94.6 116.782938)scale(0.1 -0.1)">
      <use xlink:href="#DejaVuSans-65"/>
      <use x="68.408203" xlink:href="#DejaVuSans-103"/>
      <use x="131.884766" xlink:href="#DejaVuSans-101"/>
      <use x="193.408203" xlink:href="#DejaVuSans-32"/>
      <use x="225.195312" xlink:href="#DejaVuSans-61"/>
      <use x="308.984375" xlink:href="#DejaVuSans-32"/>
      <use x="340.771484" xlink:href="#DejaVuSans-55"/>
      <use x="404.394531" xlink:href="#DejaVuSans-48"/>
     </g>
    </g>
    <g id="line2d_41">
     <path d="M 66.6 127.961063 
L 86.6 127.961063 
" style="fill:none;stroke:#8c564b;stroke-linecap:square;stroke-width:1.5;"/>
    </g>
    <g id="line2d_42"/>
    <g id="text_20">
     <!-- Age = 80 -->
     <defs>
      <path d="M 31.78125 34.625 
Q 24.75 34.625 20.71875 30.859375 
Q 16.703125 27.09375 16.703125 20.515625 
Q 16.703125 13.921875 20.71875 10.15625 
Q 24.75 6.390625 31.78125 6.390625 
Q 38.8125 6.390625 42.859375 10.171875 
Q 46.921875 13.96875 46.921875 20.515625 
Q 46.921875 27.09375 42.890625 30.859375 
Q 38.875 34.625 31.78125 34.625 
z
M 21.921875 38.8125 
Q 15.578125 40.375 12.03125 44.71875 
Q 8.5 49.078125 8.5 55.328125 
Q 8.5 64.0625 14.71875 69.140625 
Q 20.953125 74.21875 31.78125 74.21875 
Q 42.671875 74.21875 48.875 69.140625 
Q 55.078125 64.0625 55.078125 55.328125 
Q 55.078125 49.078125 51.53125 44.71875 
Q 48 40.375 41.703125 38.8125 
Q 48.828125 37.15625 52.796875 32.3125 
Q 56.78125 27.484375 56.78125 20.515625 
Q 56.78125 9.90625 50.3125 4.234375 
Q 43.84375 -1.421875 31.78125 -1.421875 
Q 19.734375 -1.421875 13.25 4.234375 
Q 6.78125 9.90625 6.78125 20.515625 
Q 6.78125 27.484375 10.78125 32.3125 
Q 14.796875 37.15625 21.921875 38.8125 
z
M 18.3125 54.390625 
Q 18.3125 48.734375 21.84375 45.5625 
Q 25.390625 42.390625 31.78125 42.390625 
Q 38.140625 42.390625 41.71875 45.5625 
Q 45.3125 48.734375 45.3125 54.390625 
Q 45.3125 60.0625 41.71875 63.234375 
Q 38.140625 66.40625 31.78125 66.40625 
Q 25.390625 66.40625 21.84375 63.234375 
Q 18.3125 60.0625 18.3125 54.390625 
z
" id="DejaVuSans-56"/>
     </defs>
     <g transform="translate(94.6 131.461063)scale(0.1 -0.1)">
      <use xlink:href="#DejaVuSans-65"/>
      <use x="68.408203" xlink:href="#DejaVuSans-103"/>
      <use x="131.884766" xlink:href="#DejaVuSans-101"/>
      <use x="193.408203" xlink:href="#DejaVuSans-32"/>
      <use x="225.195312" xlink:href="#DejaVuSans-61"/>
      <use x="308.984375" xlink:href="#DejaVuSans-32"/>
      <use x="340.771484" xlink:href="#DejaVuSans-56"/>
      <use x="404.394531" xlink:href="#DejaVuSans-48"/>
     </g>
    </g>
   </g>
  </g>
 </g>
 <defs>
  <clipPath id="pa419e4b145">
   <rect height="266.112" width="357.12" x="57.6" y="41.472"/>
  </clipPath>
 </defs>
</svg>
