<?xml version="1.0" encoding="utf-8" standalone="no"?>
<!DOCTYPE svg PUBLIC "-//W3C//DTD SVG 1.1//EN"
  "http://www.w3.org/Graphics/SVG/1.1/DTD/svg11.dtd">
<!-- Created with matplotlib (https://matplotlib.org/) -->
<svg height="345.6pt" version="1.1" viewBox="0 0 460.8 345.6" width="460.8pt" xmlns="http://www.w3.org/2000/svg" xmlns:xlink="http://www.w3.org/1999/xlink">
 <defs>
  <style type="text/css">
*{stroke-linecap:butt;stroke-linejoin:round;}
  </style>
 </defs>
 <g id="figure_1">
  <g id="patch_1">
   <path d="M 0 345.6 
L 460.8 345.6 
L 460.8 0 
L 0 0 
z
" style="fill:#ffffff;"/>
  </g>
  <g id="axes_1">
   <g id="patch_2">
    <path d="M 57.6 307.584 
L 414.72 307.584 
L 414.72 41.472 
L 57.6 41.472 
z
" style="fill:#ffffff;"/>
   </g>
   <g id="matplotlib.axis_1">
    <g id="xtick_1">
     <g id="line2d_1">
      <path clip-path="url(#pb8d7fa09e7)" d="M 73.832727 307.584 
L 73.832727 41.472 
" style="fill:none;stroke:#b0b0b0;stroke-linecap:square;stroke-width:0.8;"/>
     </g>
     <g id="line2d_2">
      <defs>
       <path d="M 0 0 
L 0 3.5 
" id="m0ad3282ecf" style="stroke:#000000;stroke-width:0.8;"/>
      </defs>
      <g>
       <use style="stroke:#000000;stroke-width:0.8;" x="73.832727" xlink:href="#m0ad3282ecf" y="307.584"/>
      </g>
     </g>
     <g id="text_1">
      <!-- 0 -->
      <defs>
       <path d="M 31.78125 66.40625 
Q 24.171875 66.40625 20.328125 58.90625 
Q 16.5 51.421875 16.5 36.375 
Q 16.5 21.390625 20.328125 13.890625 
Q 24.171875 6.390625 31.78125 6.390625 
Q 39.453125 6.390625 43.28125 13.890625 
Q 47.125 21.390625 47.125 36.375 
Q 47.125 51.421875 43.28125 58.90625 
Q 39.453125 66.40625 31.78125 66.40625 
z
M 31.78125 74.21875 
Q 44.046875 74.21875 50.515625 64.515625 
Q 56.984375 54.828125 56.984375 36.375 
Q 56.984375 17.96875 50.515625 8.265625 
Q 44.046875 -1.421875 31.78125 -1.421875 
Q 19.53125 -1.421875 13.0625 8.265625 
Q 6.59375 17.96875 6.59375 36.375 
Q 6.59375 54.828125 13.0625 64.515625 
Q 19.53125 74.21875 31.78125 74.21875 
z
" id="DejaVuSans-48"/>
      </defs>
      <g transform="translate(70.651477 322.182437)scale(0.1 -0.1)">
       <use xlink:href="#DejaVuSans-48"/>
      </g>
     </g>
    </g>
    <g id="xtick_2">
     <g id="line2d_3">
      <path clip-path="url(#pb8d7fa09e7)" d="M 127.941818 307.584 
L 127.941818 41.472 
" style="fill:none;stroke:#b0b0b0;stroke-linecap:square;stroke-width:0.8;"/>
     </g>
     <g id="line2d_4">
      <g>
       <use style="stroke:#000000;stroke-width:0.8;" x="127.941818" xlink:href="#m0ad3282ecf" y="307.584"/>
      </g>
     </g>
     <g id="text_2">
      <!-- 50 -->
      <defs>
       <path d="M 10.796875 72.90625 
L 49.515625 72.90625 
L 49.515625 64.59375 
L 19.828125 64.59375 
L 19.828125 46.734375 
Q 21.96875 47.46875 24.109375 47.828125 
Q 26.265625 48.1875 28.421875 48.1875 
Q 40.625 48.1875 47.75 41.5 
Q 54.890625 34.8125 54.890625 23.390625 
Q 54.890625 11.625 47.5625 5.09375 
Q 40.234375 -1.421875 26.90625 -1.421875 
Q 22.3125 -1.421875 17.546875 -0.640625 
Q 12.796875 0.140625 7.71875 1.703125 
L 7.71875 11.625 
Q 12.109375 9.234375 16.796875 8.0625 
Q 21.484375 6.890625 26.703125 6.890625 
Q 35.15625 6.890625 40.078125 11.328125 
Q 45.015625 15.765625 45.015625 23.390625 
Q 45.015625 31 40.078125 35.4375 
Q 35.15625 39.890625 26.703125 39.890625 
Q 22.75 39.890625 18.8125 39.015625 
Q 14.890625 38.140625 10.796875 36.28125 
z
" id="DejaVuSans-53"/>
      </defs>
      <g transform="translate(121.579318 322.182437)scale(0.1 -0.1)">
       <use xlink:href="#DejaVuSans-53"/>
       <use x="63.623047" xlink:href="#DejaVuSans-48"/>
      </g>
     </g>
    </g>
    <g id="xtick_3">
     <g id="line2d_5">
      <path clip-path="url(#pb8d7fa09e7)" d="M 182.050909 307.584 
L 182.050909 41.472 
" style="fill:none;stroke:#b0b0b0;stroke-linecap:square;stroke-width:0.8;"/>
     </g>
     <g id="line2d_6">
      <g>
       <use style="stroke:#000000;stroke-width:0.8;" x="182.050909" xlink:href="#m0ad3282ecf" y="307.584"/>
      </g>
     </g>
     <g id="text_3">
      <!-- 100 -->
      <defs>
       <path d="M 12.40625 8.296875 
L 28.515625 8.296875 
L 28.515625 63.921875 
L 10.984375 60.40625 
L 10.984375 69.390625 
L 28.421875 72.90625 
L 38.28125 72.90625 
L 38.28125 8.296875 
L 54.390625 8.296875 
L 54.390625 0 
L 12.40625 0 
z
" id="DejaVuSans-49"/>
      </defs>
      <g transform="translate(172.507159 322.182437)scale(0.1 -0.1)">
       <use xlink:href="#DejaVuSans-49"/>
       <use x="63.623047" xlink:href="#DejaVuSans-48"/>
       <use x="127.246094" xlink:href="#DejaVuSans-48"/>
      </g>
     </g>
    </g>
    <g id="xtick_4">
     <g id="line2d_7">
      <path clip-path="url(#pb8d7fa09e7)" d="M 236.16 307.584 
L 236.16 41.472 
" style="fill:none;stroke:#b0b0b0;stroke-linecap:square;stroke-width:0.8;"/>
     </g>
     <g id="line2d_8">
      <g>
       <use style="stroke:#000000;stroke-width:0.8;" x="236.16" xlink:href="#m0ad3282ecf" y="307.584"/>
      </g>
     </g>
     <g id="text_4">
      <!-- 150 -->
      <g transform="translate(226.61625 322.182437)scale(0.1 -0.1)">
       <use xlink:href="#DejaVuSans-49"/>
       <use x="63.623047" xlink:href="#DejaVuSans-53"/>
       <use x="127.246094" xlink:href="#DejaVuSans-48"/>
      </g>
     </g>
    </g>
    <g id="xtick_5">
     <g id="line2d_9">
      <path clip-path="url(#pb8d7fa09e7)" d="M 290.269091 307.584 
L 290.269091 41.472 
" style="fill:none;stroke:#b0b0b0;stroke-linecap:square;stroke-width:0.8;"/>
     </g>
     <g id="line2d_10">
      <g>
       <use style="stroke:#000000;stroke-width:0.8;" x="290.269091" xlink:href="#m0ad3282ecf" y="307.584"/>
      </g>
     </g>
     <g id="text_5">
      <!-- 200 -->
      <defs>
       <path d="M 19.1875 8.296875 
L 53.609375 8.296875 
L 53.609375 0 
L 7.328125 0 
L 7.328125 8.296875 
Q 12.9375 14.109375 22.625 23.890625 
Q 32.328125 33.6875 34.8125 36.53125 
Q 39.546875 41.84375 41.421875 45.53125 
Q 43.3125 49.21875 43.3125 52.78125 
Q 43.3125 58.59375 39.234375 62.25 
Q 35.15625 65.921875 28.609375 65.921875 
Q 23.96875 65.921875 18.8125 64.3125 
Q 13.671875 62.703125 7.8125 59.421875 
L 7.8125 69.390625 
Q 13.765625 71.78125 18.9375 73 
Q 24.125 74.21875 28.421875 74.21875 
Q 39.75 74.21875 46.484375 68.546875 
Q 53.21875 62.890625 53.21875 53.421875 
Q 53.21875 48.921875 51.53125 44.890625 
Q 49.859375 40.875 45.40625 35.40625 
Q 44.1875 33.984375 37.640625 27.21875 
Q 31.109375 20.453125 19.1875 8.296875 
z
" id="DejaVuSans-50"/>
      </defs>
      <g transform="translate(280.725341 322.182437)scale(0.1 -0.1)">
       <use xlink:href="#DejaVuSans-50"/>
       <use x="63.623047" xlink:href="#DejaVuSans-48"/>
       <use x="127.246094" xlink:href="#DejaVuSans-48"/>
      </g>
     </g>
    </g>
    <g id="xtick_6">
     <g id="line2d_11">
      <path clip-path="url(#pb8d7fa09e7)" d="M 344.378182 307.584 
L 344.378182 41.472 
" style="fill:none;stroke:#b0b0b0;stroke-linecap:square;stroke-width:0.8;"/>
     </g>
     <g id="line2d_12">
      <g>
       <use style="stroke:#000000;stroke-width:0.8;" x="344.378182" xlink:href="#m0ad3282ecf" y="307.584"/>
      </g>
     </g>
     <g id="text_6">
      <!-- 250 -->
      <g transform="translate(334.834432 322.182437)scale(0.1 -0.1)">
       <use xlink:href="#DejaVuSans-50"/>
       <use x="63.623047" xlink:href="#DejaVuSans-53"/>
       <use x="127.246094" xlink:href="#DejaVuSans-48"/>
      </g>
     </g>
    </g>
    <g id="xtick_7">
     <g id="line2d_13">
      <path clip-path="url(#pb8d7fa09e7)" d="M 398.487273 307.584 
L 398.487273 41.472 
" style="fill:none;stroke:#b0b0b0;stroke-linecap:square;stroke-width:0.8;"/>
     </g>
     <g id="line2d_14">
      <g>
       <use style="stroke:#000000;stroke-width:0.8;" x="398.487273" xlink:href="#m0ad3282ecf" y="307.584"/>
      </g>
     </g>
     <g id="text_7">
      <!-- 300 -->
      <defs>
       <path d="M 40.578125 39.3125 
Q 47.65625 37.796875 51.625 33 
Q 55.609375 28.21875 55.609375 21.1875 
Q 55.609375 10.40625 48.1875 4.484375 
Q 40.765625 -1.421875 27.09375 -1.421875 
Q 22.515625 -1.421875 17.65625 -0.515625 
Q 12.796875 0.390625 7.625 2.203125 
L 7.625 11.71875 
Q 11.71875 9.328125 16.59375 8.109375 
Q 21.484375 6.890625 26.8125 6.890625 
Q 36.078125 6.890625 40.9375 10.546875 
Q 45.796875 14.203125 45.796875 21.1875 
Q 45.796875 27.640625 41.28125 31.265625 
Q 36.765625 34.90625 28.71875 34.90625 
L 20.21875 34.90625 
L 20.21875 43.015625 
L 29.109375 43.015625 
Q 36.375 43.015625 40.234375 45.921875 
Q 44.09375 48.828125 44.09375 54.296875 
Q 44.09375 59.90625 40.109375 62.90625 
Q 36.140625 65.921875 28.71875 65.921875 
Q 24.65625 65.921875 20.015625 65.03125 
Q 15.375 64.15625 9.8125 62.3125 
L 9.8125 71.09375 
Q 15.4375 72.65625 20.34375 73.4375 
Q 25.25 74.21875 29.59375 74.21875 
Q 40.828125 74.21875 47.359375 69.109375 
Q 53.90625 64.015625 53.90625 55.328125 
Q 53.90625 49.265625 50.4375 45.09375 
Q 46.96875 40.921875 40.578125 39.3125 
z
" id="DejaVuSans-51"/>
      </defs>
      <g transform="translate(388.943523 322.182437)scale(0.1 -0.1)">
       <use xlink:href="#DejaVuSans-51"/>
       <use x="63.623047" xlink:href="#DejaVuSans-48"/>
       <use x="127.246094" xlink:href="#DejaVuSans-48"/>
      </g>
     </g>
    </g>
    <g id="text_8">
     <!-- Wealth -->
     <defs>
      <path d="M 3.328125 72.90625 
L 13.28125 72.90625 
L 28.609375 11.28125 
L 43.890625 72.90625 
L 54.984375 72.90625 
L 70.3125 11.28125 
L 85.59375 72.90625 
L 95.609375 72.90625 
L 77.296875 0 
L 64.890625 0 
L 49.515625 63.28125 
L 33.984375 0 
L 21.578125 0 
z
" id="DejaVuSans-87"/>
      <path d="M 56.203125 29.59375 
L 56.203125 25.203125 
L 14.890625 25.203125 
Q 15.484375 15.921875 20.484375 11.0625 
Q 25.484375 6.203125 34.421875 6.203125 
Q 39.59375 6.203125 44.453125 7.46875 
Q 49.3125 8.734375 54.109375 11.28125 
L 54.109375 2.78125 
Q 49.265625 0.734375 44.1875 -0.34375 
Q 39.109375 -1.421875 33.890625 -1.421875 
Q 20.796875 -1.421875 13.15625 6.1875 
Q 5.515625 13.8125 5.515625 26.8125 
Q 5.515625 40.234375 12.765625 48.109375 
Q 20.015625 56 32.328125 56 
Q 43.359375 56 49.78125 48.890625 
Q 56.203125 41.796875 56.203125 29.59375 
z
M 47.21875 32.234375 
Q 47.125 39.59375 43.09375 43.984375 
Q 39.0625 48.390625 32.421875 48.390625 
Q 24.90625 48.390625 20.390625 44.140625 
Q 15.875 39.890625 15.1875 32.171875 
z
" id="DejaVuSans-101"/>
      <path d="M 34.28125 27.484375 
Q 23.390625 27.484375 19.1875 25 
Q 14.984375 22.515625 14.984375 16.5 
Q 14.984375 11.71875 18.140625 8.90625 
Q 21.296875 6.109375 26.703125 6.109375 
Q 34.1875 6.109375 38.703125 11.40625 
Q 43.21875 16.703125 43.21875 25.484375 
L 43.21875 27.484375 
z
M 52.203125 31.203125 
L 52.203125 0 
L 43.21875 0 
L 43.21875 8.296875 
Q 40.140625 3.328125 35.546875 0.953125 
Q 30.953125 -1.421875 24.3125 -1.421875 
Q 15.921875 -1.421875 10.953125 3.296875 
Q 6 8.015625 6 15.921875 
Q 6 25.140625 12.171875 29.828125 
Q 18.359375 34.515625 30.609375 34.515625 
L 43.21875 34.515625 
L 43.21875 35.40625 
Q 43.21875 41.609375 39.140625 45 
Q 35.0625 48.390625 27.6875 48.390625 
Q 23 48.390625 18.546875 47.265625 
Q 14.109375 46.140625 10.015625 43.890625 
L 10.015625 52.203125 
Q 14.9375 54.109375 19.578125 55.046875 
Q 24.21875 56 28.609375 56 
Q 40.484375 56 46.34375 49.84375 
Q 52.203125 43.703125 52.203125 31.203125 
z
" id="DejaVuSans-97"/>
      <path d="M 9.421875 75.984375 
L 18.40625 75.984375 
L 18.40625 0 
L 9.421875 0 
z
" id="DejaVuSans-108"/>
      <path d="M 18.3125 70.21875 
L 18.3125 54.6875 
L 36.8125 54.6875 
L 36.8125 47.703125 
L 18.3125 47.703125 
L 18.3125 18.015625 
Q 18.3125 11.328125 20.140625 9.421875 
Q 21.96875 7.515625 27.59375 7.515625 
L 36.8125 7.515625 
L 36.8125 0 
L 27.59375 0 
Q 17.1875 0 13.234375 3.875 
Q 9.28125 7.765625 9.28125 18.015625 
L 9.28125 47.703125 
L 2.6875 47.703125 
L 2.6875 54.6875 
L 9.28125 54.6875 
L 9.28125 70.21875 
z
" id="DejaVuSans-116"/>
      <path d="M 54.890625 33.015625 
L 54.890625 0 
L 45.90625 0 
L 45.90625 32.71875 
Q 45.90625 40.484375 42.875 44.328125 
Q 39.84375 48.1875 33.796875 48.1875 
Q 26.515625 48.1875 22.3125 43.546875 
Q 18.109375 38.921875 18.109375 30.90625 
L 18.109375 0 
L 9.078125 0 
L 9.078125 75.984375 
L 18.109375 75.984375 
L 18.109375 46.1875 
Q 21.34375 51.125 25.703125 53.5625 
Q 30.078125 56 35.796875 56 
Q 45.21875 56 50.046875 50.171875 
Q 54.890625 44.34375 54.890625 33.015625 
z
" id="DejaVuSans-104"/>
     </defs>
     <g transform="translate(218.561563 335.860562)scale(0.1 -0.1)">
      <use xlink:href="#DejaVuSans-87"/>
      <use x="98.798828" xlink:href="#DejaVuSans-101"/>
      <use x="160.322266" xlink:href="#DejaVuSans-97"/>
      <use x="221.601562" xlink:href="#DejaVuSans-108"/>
      <use x="249.384766" xlink:href="#DejaVuSans-116"/>
      <use x="288.59375" xlink:href="#DejaVuSans-104"/>
     </g>
    </g>
   </g>
   <g id="matplotlib.axis_2">
    <g id="ytick_1">
     <g id="line2d_15">
      <path clip-path="url(#pb8d7fa09e7)" d="M 57.6 295.488 
L 414.72 295.488 
" style="fill:none;stroke:#b0b0b0;stroke-linecap:square;stroke-width:0.8;"/>
     </g>
     <g id="line2d_16">
      <defs>
       <path d="M 0 0 
L -3.5 0 
" id="maca422c6c4" style="stroke:#000000;stroke-width:0.8;"/>
      </defs>
      <g>
       <use style="stroke:#000000;stroke-width:0.8;" x="57.6" xlink:href="#maca422c6c4" y="295.488"/>
      </g>
     </g>
     <g id="text_9">
      <!-- 0 -->
      <g transform="translate(44.2375 299.287219)scale(0.1 -0.1)">
       <use xlink:href="#DejaVuSans-48"/>
      </g>
     </g>
    </g>
    <g id="ytick_2">
     <g id="line2d_17">
      <path clip-path="url(#pb8d7fa09e7)" d="M 57.6 236.581035 
L 414.72 236.581035 
" style="fill:none;stroke:#b0b0b0;stroke-linecap:square;stroke-width:0.8;"/>
     </g>
     <g id="line2d_18">
      <g>
       <use style="stroke:#000000;stroke-width:0.8;" x="57.6" xlink:href="#maca422c6c4" y="236.581035"/>
      </g>
     </g>
     <g id="text_10">
      <!-- 10 -->
      <g transform="translate(37.875 240.380253)scale(0.1 -0.1)">
       <use xlink:href="#DejaVuSans-49"/>
       <use x="63.623047" xlink:href="#DejaVuSans-48"/>
      </g>
     </g>
    </g>
    <g id="ytick_3">
     <g id="line2d_19">
      <path clip-path="url(#pb8d7fa09e7)" d="M 57.6 177.674069 
L 414.72 177.674069 
" style="fill:none;stroke:#b0b0b0;stroke-linecap:square;stroke-width:0.8;"/>
     </g>
     <g id="line2d_20">
      <g>
       <use style="stroke:#000000;stroke-width:0.8;" x="57.6" xlink:href="#maca422c6c4" y="177.674069"/>
      </g>
     </g>
     <g id="text_11">
      <!-- 20 -->
      <g transform="translate(37.875 181.473288)scale(0.1 -0.1)">
       <use xlink:href="#DejaVuSans-50"/>
       <use x="63.623047" xlink:href="#DejaVuSans-48"/>
      </g>
     </g>
    </g>
    <g id="ytick_4">
     <g id="line2d_21">
      <path clip-path="url(#pb8d7fa09e7)" d="M 57.6 118.767104 
L 414.72 118.767104 
" style="fill:none;stroke:#b0b0b0;stroke-linecap:square;stroke-width:0.8;"/>
     </g>
     <g id="line2d_22">
      <g>
       <use style="stroke:#000000;stroke-width:0.8;" x="57.6" xlink:href="#maca422c6c4" y="118.767104"/>
      </g>
     </g>
     <g id="text_12">
      <!-- 30 -->
      <g transform="translate(37.875 122.566322)scale(0.1 -0.1)">
       <use xlink:href="#DejaVuSans-51"/>
       <use x="63.623047" xlink:href="#DejaVuSans-48"/>
      </g>
     </g>
    </g>
    <g id="ytick_5">
     <g id="line2d_23">
      <path clip-path="url(#pb8d7fa09e7)" d="M 57.6 59.860138 
L 414.72 59.860138 
" style="fill:none;stroke:#b0b0b0;stroke-linecap:square;stroke-width:0.8;"/>
     </g>
     <g id="line2d_24">
      <g>
       <use style="stroke:#000000;stroke-width:0.8;" x="57.6" xlink:href="#maca422c6c4" y="59.860138"/>
      </g>
     </g>
     <g id="text_13">
      <!-- 40 -->
      <defs>
       <path d="M 37.796875 64.3125 
L 12.890625 25.390625 
L 37.796875 25.390625 
z
M 35.203125 72.90625 
L 47.609375 72.90625 
L 47.609375 25.390625 
L 58.015625 25.390625 
L 58.015625 17.1875 
L 47.609375 17.1875 
L 47.609375 0 
L 37.796875 0 
L 37.796875 17.1875 
L 4.890625 17.1875 
L 4.890625 26.703125 
z
" id="DejaVuSans-52"/>
      </defs>
      <g transform="translate(37.875 63.659357)scale(0.1 -0.1)">
       <use xlink:href="#DejaVuSans-52"/>
       <use x="63.623047" xlink:href="#DejaVuSans-48"/>
      </g>
     </g>
    </g>
    <g id="text_14">
     <!-- Consumption -->
     <defs>
      <path d="M 64.40625 67.28125 
L 64.40625 56.890625 
Q 59.421875 61.53125 53.78125 63.8125 
Q 48.140625 66.109375 41.796875 66.109375 
Q 29.296875 66.109375 22.65625 58.46875 
Q 16.015625 50.828125 16.015625 36.375 
Q 16.015625 21.96875 22.65625 14.328125 
Q 29.296875 6.6875 41.796875 6.6875 
Q 48.140625 6.6875 53.78125 8.984375 
Q 59.421875 11.28125 64.40625 15.921875 
L 64.40625 5.609375 
Q 59.234375 2.09375 53.4375 0.328125 
Q 47.65625 -1.421875 41.21875 -1.421875 
Q 24.65625 -1.421875 15.125 8.703125 
Q 5.609375 18.84375 5.609375 36.375 
Q 5.609375 53.953125 15.125 64.078125 
Q 24.65625 74.21875 41.21875 74.21875 
Q 47.75 74.21875 53.53125 72.484375 
Q 59.328125 70.75 64.40625 67.28125 
z
" id="DejaVuSans-67"/>
      <path d="M 30.609375 48.390625 
Q 23.390625 48.390625 19.1875 42.75 
Q 14.984375 37.109375 14.984375 27.296875 
Q 14.984375 17.484375 19.15625 11.84375 
Q 23.34375 6.203125 30.609375 6.203125 
Q 37.796875 6.203125 41.984375 11.859375 
Q 46.1875 17.53125 46.1875 27.296875 
Q 46.1875 37.015625 41.984375 42.703125 
Q 37.796875 48.390625 30.609375 48.390625 
z
M 30.609375 56 
Q 42.328125 56 49.015625 48.375 
Q 55.71875 40.765625 55.71875 27.296875 
Q 55.71875 13.875 49.015625 6.21875 
Q 42.328125 -1.421875 30.609375 -1.421875 
Q 18.84375 -1.421875 12.171875 6.21875 
Q 5.515625 13.875 5.515625 27.296875 
Q 5.515625 40.765625 12.171875 48.375 
Q 18.84375 56 30.609375 56 
z
" id="DejaVuSans-111"/>
      <path d="M 54.890625 33.015625 
L 54.890625 0 
L 45.90625 0 
L 45.90625 32.71875 
Q 45.90625 40.484375 42.875 44.328125 
Q 39.84375 48.1875 33.796875 48.1875 
Q 26.515625 48.1875 22.3125 43.546875 
Q 18.109375 38.921875 18.109375 30.90625 
L 18.109375 0 
L 9.078125 0 
L 9.078125 54.6875 
L 18.109375 54.6875 
L 18.109375 46.1875 
Q 21.34375 51.125 25.703125 53.5625 
Q 30.078125 56 35.796875 56 
Q 45.21875 56 50.046875 50.171875 
Q 54.890625 44.34375 54.890625 33.015625 
z
" id="DejaVuSans-110"/>
      <path d="M 44.28125 53.078125 
L 44.28125 44.578125 
Q 40.484375 46.53125 36.375 47.5 
Q 32.28125 48.484375 27.875 48.484375 
Q 21.1875 48.484375 17.84375 46.4375 
Q 14.5 44.390625 14.5 40.28125 
Q 14.5 37.15625 16.890625 35.375 
Q 19.28125 33.59375 26.515625 31.984375 
L 29.59375 31.296875 
Q 39.15625 29.25 43.1875 25.515625 
Q 47.21875 21.78125 47.21875 15.09375 
Q 47.21875 7.46875 41.1875 3.015625 
Q 35.15625 -1.421875 24.609375 -1.421875 
Q 20.21875 -1.421875 15.453125 -0.5625 
Q 10.6875 0.296875 5.421875 2 
L 5.421875 11.28125 
Q 10.40625 8.6875 15.234375 7.390625 
Q 20.0625 6.109375 24.8125 6.109375 
Q 31.15625 6.109375 34.5625 8.28125 
Q 37.984375 10.453125 37.984375 14.40625 
Q 37.984375 18.0625 35.515625 20.015625 
Q 33.0625 21.96875 24.703125 23.78125 
L 21.578125 24.515625 
Q 13.234375 26.265625 9.515625 29.90625 
Q 5.8125 33.546875 5.8125 39.890625 
Q 5.8125 47.609375 11.28125 51.796875 
Q 16.75 56 26.8125 56 
Q 31.78125 56 36.171875 55.265625 
Q 40.578125 54.546875 44.28125 53.078125 
z
" id="DejaVuSans-115"/>
      <path d="M 8.5 21.578125 
L 8.5 54.6875 
L 17.484375 54.6875 
L 17.484375 21.921875 
Q 17.484375 14.15625 20.5 10.265625 
Q 23.53125 6.390625 29.59375 6.390625 
Q 36.859375 6.390625 41.078125 11.03125 
Q 45.3125 15.671875 45.3125 23.6875 
L 45.3125 54.6875 
L 54.296875 54.6875 
L 54.296875 0 
L 45.3125 0 
L 45.3125 8.40625 
Q 42.046875 3.421875 37.71875 1 
Q 33.40625 -1.421875 27.6875 -1.421875 
Q 18.265625 -1.421875 13.375 4.4375 
Q 8.5 10.296875 8.5 21.578125 
z
M 31.109375 56 
z
" id="DejaVuSans-117"/>
      <path d="M 52 44.1875 
Q 55.375 50.25 60.0625 53.125 
Q 64.75 56 71.09375 56 
Q 79.640625 56 84.28125 50.015625 
Q 88.921875 44.046875 88.921875 33.015625 
L 88.921875 0 
L 79.890625 0 
L 79.890625 32.71875 
Q 79.890625 40.578125 77.09375 44.375 
Q 74.3125 48.1875 68.609375 48.1875 
Q 61.625 48.1875 57.5625 43.546875 
Q 53.515625 38.921875 53.515625 30.90625 
L 53.515625 0 
L 44.484375 0 
L 44.484375 32.71875 
Q 44.484375 40.625 41.703125 44.40625 
Q 38.921875 48.1875 33.109375 48.1875 
Q 26.21875 48.1875 22.15625 43.53125 
Q 18.109375 38.875 18.109375 30.90625 
L 18.109375 0 
L 9.078125 0 
L 9.078125 54.6875 
L 18.109375 54.6875 
L 18.109375 46.1875 
Q 21.1875 51.21875 25.484375 53.609375 
Q 29.78125 56 35.6875 56 
Q 41.65625 56 45.828125 52.96875 
Q 50 49.953125 52 44.1875 
z
" id="DejaVuSans-109"/>
      <path d="M 18.109375 8.203125 
L 18.109375 -20.796875 
L 9.078125 -20.796875 
L 9.078125 54.6875 
L 18.109375 54.6875 
L 18.109375 46.390625 
Q 20.953125 51.265625 25.265625 53.625 
Q 29.59375 56 35.59375 56 
Q 45.5625 56 51.78125 48.09375 
Q 58.015625 40.1875 58.015625 27.296875 
Q 58.015625 14.40625 51.78125 6.484375 
Q 45.5625 -1.421875 35.59375 -1.421875 
Q 29.59375 -1.421875 25.265625 0.953125 
Q 20.953125 3.328125 18.109375 8.203125 
z
M 48.6875 27.296875 
Q 48.6875 37.203125 44.609375 42.84375 
Q 40.53125 48.484375 33.40625 48.484375 
Q 26.265625 48.484375 22.1875 42.84375 
Q 18.109375 37.203125 18.109375 27.296875 
Q 18.109375 17.390625 22.1875 11.75 
Q 26.265625 6.109375 33.40625 6.109375 
Q 40.53125 6.109375 44.609375 11.75 
Q 48.6875 17.390625 48.6875 27.296875 
z
" id="DejaVuSans-112"/>
      <path d="M 9.421875 54.6875 
L 18.40625 54.6875 
L 18.40625 0 
L 9.421875 0 
z
M 9.421875 75.984375 
L 18.40625 75.984375 
L 18.40625 64.59375 
L 9.421875 64.59375 
z
" id="DejaVuSans-105"/>
     </defs>
     <g transform="translate(31.795312 207.642844)rotate(-90)scale(0.1 -0.1)">
      <use xlink:href="#DejaVuSans-67"/>
      <use x="69.824219" xlink:href="#DejaVuSans-111"/>
      <use x="131.005859" xlink:href="#DejaVuSans-110"/>
      <use x="194.384766" xlink:href="#DejaVuSans-115"/>
      <use x="246.484375" xlink:href="#DejaVuSans-117"/>
      <use x="309.863281" xlink:href="#DejaVuSans-109"/>
      <use x="407.275391" xlink:href="#DejaVuSans-112"/>
      <use x="470.751953" xlink:href="#DejaVuSans-116"/>
      <use x="509.960938" xlink:href="#DejaVuSans-105"/>
      <use x="537.744141" xlink:href="#DejaVuSans-111"/>
      <use x="598.925781" xlink:href="#DejaVuSans-110"/>
     </g>
    </g>
   </g>
   <g id="line2d_25">
    <path clip-path="url(#pb8d7fa09e7)" d="M 73.832727 295.488 
L 77.112066 277.665757 
L 80.391405 259.843515 
L 83.670744 242.021272 
L 86.950083 224.19903 
L 90.229421 206.376787 
L 93.50876 203.781406 
L 96.788099 202.604658 
L 100.067438 201.453262 
L 103.346777 200.324887 
L 106.626116 199.217555 
L 109.905455 198.129579 
L 113.184793 197.059479 
L 116.464132 196.005951 
L 119.743471 194.9679 
L 123.02281 193.944278 
L 126.302149 192.934163 
L 129.581488 191.936824 
L 132.860826 190.9514 
L 136.140165 189.977343 
L 139.419504 189.013951 
L 142.698843 188.060748 
L 145.978182 187.117115 
L 149.257521 186.182689 
L 152.53686 185.256965 
L 155.816198 184.339558 
L 159.095537 183.430022 
L 162.374876 182.528105 
L 165.654215 181.633493 
L 168.933554 180.745788 
L 172.212893 179.864785 
L 175.492231 178.990195 
L 178.77157 178.121608 
L 182.050909 177.25916 
L 185.330248 176.402369 
L 188.609587 175.550809 
L 191.888926 174.704569 
L 195.168264 173.863465 
L 198.447603 173.026916 
L 201.726942 172.195319 
L 205.006281 171.368561 
L 208.28562 170.546079 
L 211.564959 169.727294 
L 214.844298 168.912338 
L 218.123636 168.100774 
L 221.402975 167.292985 
L 224.682314 166.491876 
L 227.961653 165.695943 
L 231.240992 164.902734 
L 234.520331 164.112085 
L 237.799669 163.323847 
L 241.079008 162.537882 
L 244.358347 161.754171 
L 247.637686 160.972528 
L 250.917025 160.192823 
L 254.196364 159.414941 
L 257.475702 158.638854 
L 260.755041 157.864484 
L 264.03438 157.091743 
L 267.313719 156.320589 
L 270.593058 155.550961 
L 273.872397 154.782825 
L 277.151736 154.016126 
L 280.431074 153.250826 
L 283.710413 152.487014 
L 286.989752 151.724534 
L 290.269091 150.963331 
L 293.54843 150.20335 
L 296.827769 149.444534 
L 300.107107 148.687144 
L 303.386446 147.930995 
L 306.665785 147.175892 
L 309.945124 146.421776 
L 313.224463 145.669116 
L 316.503802 144.917533 
L 319.78314 144.166839 
L 323.062479 143.417398 
L 326.341818 142.669131 
L 329.621157 141.921618 
L 332.900496 141.175379 
L 336.179835 140.430169 
L 339.459174 139.68558 
L 342.738512 138.942603 
L 346.017851 138.200217 
L 349.29719 137.458892 
L 352.576529 136.718622 
L 355.855868 135.978925 
L 359.135207 135.240685 
L 362.414545 134.502758 
L 365.693884 133.766374 
L 368.973223 133.030345 
L 372.252562 132.295628 
L 375.531901 131.561398 
L 378.81124 130.828339 
L 382.090579 130.09581 
L 385.369917 129.364419 
L 388.649256 128.633506 
L 391.928595 127.903804 
L 395.207934 127.174421 
L 398.487273 126.446414 
" style="fill:none;stroke:#1f77b4;stroke-linecap:square;stroke-width:1.5;"/>
   </g>
   <g id="line2d_26">
    <path clip-path="url(#pb8d7fa09e7)" d="M 73.832727 295.488 
L 77.112066 277.66868 
L 80.391405 259.84936 
L 83.670744 242.030039 
L 86.950083 224.210719 
L 90.229421 206.391399 
L 93.50876 199.536321 
L 96.788099 198.347663 
L 100.067438 197.182692 
L 103.346777 196.039341 
L 106.626116 194.915825 
L 109.905455 193.810607 
L 113.184793 192.722352 
L 116.464132 191.649861 
L 119.743471 190.592087 
L 123.02281 189.548135 
L 126.302149 188.517098 
L 129.581488 187.498296 
L 132.860826 186.490919 
L 136.140165 185.494439 
L 139.419504 184.508253 
L 142.698843 183.531775 
L 145.978182 182.564629 
L 149.257521 181.60625 
L 152.53686 180.656307 
L 155.816198 179.714289 
L 159.095537 178.780101 
L 162.374876 177.853095 
L 165.654215 176.933093 
L 168.933554 176.01982 
L 172.212893 175.112939 
L 175.492231 174.212373 
L 178.77157 173.317566 
L 182.050909 172.428602 
L 185.330248 171.545009 
L 188.609587 170.666621 
L 191.888926 169.79352 
L 195.168264 168.92498 
L 198.447603 168.061278 
L 201.726942 167.202281 
L 205.006281 166.347708 
L 208.28562 165.497237 
L 211.564959 164.650585 
L 214.844298 163.807426 
L 218.123636 162.967437 
L 221.402975 162.130994 
L 224.682314 161.297341 
L 227.961653 160.472897 
L 231.240992 159.651557 
L 234.520331 158.83261 
L 237.799669 158.016173 
L 241.079008 157.201944 
L 244.358347 156.389708 
L 247.637686 155.579333 
L 250.917025 154.770786 
L 254.196364 153.964121 
L 257.475702 153.159181 
L 260.755041 152.355825 
L 264.03438 151.554033 
L 267.313719 150.753758 
L 270.593058 149.954953 
L 273.872397 149.157589 
L 277.151736 148.361617 
L 280.431074 147.56697 
L 283.710413 146.773613 
L 286.989752 145.981597 
L 290.269091 145.190946 
L 293.54843 144.401536 
L 296.827769 143.613309 
L 300.107107 142.82621 
L 303.386446 142.040186 
L 306.665785 141.255489 
L 309.945124 140.47197 
L 313.224463 139.689454 
L 316.503802 138.907892 
L 319.78314 138.127626 
L 323.062479 137.348464 
L 326.341818 136.570162 
L 329.621157 135.792915 
L 332.900496 135.016921 
L 336.179835 134.24167 
L 339.459174 133.467433 
L 342.738512 132.69438 
L 346.017851 131.921948 
L 349.29719 131.150742 
L 352.576529 130.380384 
L 355.855868 129.610704 
L 359.135207 128.842371 
L 362.414545 128.074459 
L 365.693884 127.307855 
L 368.973223 126.541837 
L 372.252562 125.776788 
L 375.531901 125.012597 
L 378.81124 124.249096 
L 382.090579 123.486653 
L 385.369917 122.724711 
L 388.649256 121.963954 
L 391.928595 121.20359 
L 395.207934 120.444432 
L 398.487273 119.68564 
" style="fill:none;stroke:#ff7f0e;stroke-linecap:square;stroke-width:1.5;"/>
   </g>
   <g id="line2d_27">
    <path clip-path="url(#pb8d7fa09e7)" d="M 73.832727 295.488 
L 77.112066 277.667788 
L 80.391405 259.847576 
L 83.670744 242.027364 
L 86.950083 224.207152 
L 90.229421 206.38694 
L 93.50876 199.247685 
L 96.788099 197.946283 
L 100.067438 196.6746 
L 103.346777 195.429751 
L 106.626116 194.209317 
L 109.905455 193.011244 
L 113.184793 191.83374 
L 116.464132 190.675261 
L 119.743471 189.534438 
L 123.02281 188.41005 
L 126.302149 187.301038 
L 129.581488 186.206447 
L 132.860826 185.125363 
L 136.140165 184.056996 
L 139.419504 183.000691 
L 142.698843 181.955792 
L 145.978182 180.921566 
L 149.257521 179.897606 
L 152.53686 178.88339 
L 155.816198 177.87841 
L 159.095537 176.882092 
L 162.374876 175.894129 
L 165.654215 174.914273 
L 168.933554 173.94212 
L 172.212893 172.977248 
L 175.492231 172.019186 
L 178.77157 171.068077 
L 182.050909 170.12315 
L 185.330248 169.184684 
L 188.609587 168.251965 
L 191.888926 167.324656 
L 195.168264 166.403209 
L 198.447603 165.486861 
L 201.726942 164.575617 
L 205.006281 163.668975 
L 208.28562 162.766514 
L 211.564959 161.867898 
L 214.844298 160.97335 
L 218.123636 160.084376 
L 221.402975 159.203722 
L 224.682314 158.325935 
L 227.961653 157.45132 
L 231.240992 156.579124 
L 234.520331 155.709822 
L 237.799669 154.842837 
L 241.079008 153.978052 
L 244.358347 153.115326 
L 247.637686 152.254869 
L 250.917025 151.396393 
L 254.196364 150.539799 
L 257.475702 149.685006 
L 260.755041 148.831955 
L 264.03438 147.980641 
L 267.313719 147.13099 
L 270.593058 146.282956 
L 273.872397 145.43649 
L 277.151736 144.591532 
L 280.431074 143.748037 
L 283.710413 142.90595 
L 286.989752 142.065229 
L 290.269091 141.225907 
L 293.54843 140.388178 
L 296.827769 139.551725 
L 300.107107 138.716497 
L 303.386446 137.882443 
L 306.665785 137.049535 
L 309.945124 136.218212 
L 313.224463 135.387963 
L 316.503802 134.55874 
L 319.78314 133.730646 
L 323.062479 132.904012 
L 326.341818 132.078292 
L 329.621157 131.253425 
L 332.900496 130.430191 
L 336.179835 129.607742 
L 339.459174 128.786116 
L 342.738512 127.965989 
L 346.017851 127.14651 
L 349.29719 126.328087 
L 352.576529 125.510802 
L 355.855868 124.694027 
L 359.135207 123.878857 
L 362.414545 123.064147 
L 365.693884 122.250595 
L 368.973223 121.437857 
L 372.252562 120.625921 
L 375.531901 119.815073 
L 378.81124 119.004755 
L 382.090579 118.195712 
L 385.369917 117.387011 
L 388.649256 116.579687 
L 391.928595 115.772604 
L 395.207934 114.966926 
L 398.487273 114.16148 
" style="fill:none;stroke:#2ca02c;stroke-linecap:square;stroke-width:1.5;"/>
   </g>
   <g id="line2d_28">
    <path clip-path="url(#pb8d7fa09e7)" d="M 73.832727 295.488 
L 77.112066 277.66471 
L 80.391405 259.841421 
L 83.670744 242.018131 
L 86.950083 224.194842 
L 90.229421 206.371552 
L 93.50876 196.878107 
L 96.788099 195.28604 
L 100.067438 193.741003 
L 103.346777 192.237444 
L 106.626116 190.771018 
L 109.905455 189.338265 
L 113.184793 187.936183 
L 116.464132 186.562359 
L 119.743471 185.214652 
L 123.02281 183.891223 
L 126.302149 182.590437 
L 129.581488 181.310796 
L 132.860826 180.051025 
L 136.140165 178.809902 
L 139.419504 177.586406 
L 142.698843 176.379471 
L 145.978182 175.188272 
L 149.257521 174.011945 
L 152.53686 172.849615 
L 155.816198 171.700847 
L 159.095537 170.564514 
L 162.374876 169.440478 
L 165.654215 168.327932 
L 168.933554 167.226293 
L 172.212893 166.135358 
L 175.492231 165.054231 
L 178.77157 163.982692 
L 182.050909 162.920338 
L 185.330248 161.866721 
L 188.609587 160.82135 
L 191.888926 159.784217 
L 195.168264 158.754809 
L 198.447603 157.732482 
L 201.726942 156.716636 
L 205.006281 155.707324 
L 208.28562 154.704505 
L 211.564959 153.711747 
L 214.844298 152.725855 
L 218.123636 151.744623 
L 221.402975 150.768228 
L 224.682314 149.796061 
L 227.961653 148.828501 
L 231.240992 147.864587 
L 234.520331 146.904511 
L 237.799669 145.948213 
L 241.079008 144.995236 
L 244.358347 144.045449 
L 247.637686 143.09874 
L 250.917025 142.15524 
L 254.196364 141.214711 
L 257.475702 140.276995 
L 260.755041 139.341959 
L 264.03438 138.409498 
L 267.313719 137.479528 
L 270.593058 136.551989 
L 273.872397 135.626781 
L 277.151736 134.703806 
L 280.431074 133.782985 
L 283.710413 132.86456 
L 286.989752 131.948289 
L 290.269091 131.033994 
L 293.54843 130.121585 
L 296.827769 129.21098 
L 300.107107 128.302097 
L 303.386446 127.395403 
L 306.665785 126.490434 
L 309.945124 125.586994 
L 313.224463 124.684997 
L 316.503802 123.785122 
L 319.78314 122.886737 
L 323.062479 121.989604 
L 326.341818 121.094172 
L 329.621157 120.200386 
L 332.900496 119.307656 
L 336.179835 118.416589 
L 339.459174 117.526971 
L 342.738512 116.6382 
L 346.017851 115.751368 
L 349.29719 114.865433 
L 352.576529 113.98069 
L 355.855868 113.097476 
L 359.135207 112.214813 
L 362.414545 111.33418 
L 365.693884 110.453966 
L 368.973223 109.575361 
L 372.252562 108.697469 
L 375.531901 107.820857 
L 378.81124 106.945154 
L 382.090579 106.070518 
L 385.369917 105.196865 
L 388.649256 104.324165 
L 391.928595 103.452419 
L 395.207934 102.581637 
L 398.487273 101.71167 
" style="fill:none;stroke:#d62728;stroke-linecap:square;stroke-width:1.5;"/>
   </g>
   <g id="line2d_29">
    <path clip-path="url(#pb8d7fa09e7)" d="M 73.832727 295.488 
L 77.112066 277.655234 
L 80.391405 259.822469 
L 83.670744 241.989703 
L 86.950083 224.156937 
L 90.229421 206.324171 
L 93.50876 194.37549 
L 96.788099 191.968581 
L 100.067438 189.865631 
L 103.346777 187.904099 
L 106.626116 186.035736 
L 109.905455 184.237501 
L 113.184793 182.495977 
L 116.464132 180.80233 
L 119.743471 179.150199 
L 123.02281 177.534916 
L 126.302149 175.952852 
L 129.581488 174.400866 
L 132.860826 172.876455 
L 136.140165 171.377469 
L 139.419504 169.902195 
L 142.698843 168.448886 
L 145.978182 167.016426 
L 149.257521 165.603401 
L 152.53686 164.209013 
L 155.816198 162.831648 
L 159.095537 161.471169 
L 162.374876 160.126809 
L 165.654215 158.797632 
L 168.933554 157.482544 
L 172.212893 156.180434 
L 175.492231 154.894077 
L 178.77157 153.621409 
L 182.050909 152.360587 
L 185.330248 151.110924 
L 188.609587 149.871798 
L 191.888926 148.64286 
L 195.168264 147.432901 
L 198.447603 146.236925 
L 201.726942 145.050912 
L 205.006281 143.873176 
L 208.28562 142.702839 
L 211.564959 141.539872 
L 214.844298 140.383349 
L 218.123636 139.232879 
L 221.402975 138.0896 
L 224.682314 136.955629 
L 227.961653 135.830008 
L 231.240992 134.711484 
L 234.520331 133.598606 
L 237.799669 132.490722 
L 241.079008 131.387487 
L 244.358347 130.288796 
L 247.637686 129.194387 
L 250.917025 128.103998 
L 254.196364 127.017687 
L 257.475702 125.936488 
L 260.755041 124.860507 
L 264.03438 123.789009 
L 267.313719 122.721387 
L 270.593058 121.657287 
L 273.872397 120.596441 
L 277.151736 119.538778 
L 280.431074 118.484726 
L 283.710413 117.4334 
L 286.989752 116.384583 
L 290.269091 115.338124 
L 293.54843 114.294796 
L 296.827769 113.254558 
L 300.107107 112.216768 
L 303.386446 111.181458 
L 306.665785 110.149684 
L 309.945124 109.119741 
L 313.224463 108.091603 
L 316.503802 107.066617 
L 319.78314 106.043002 
L 323.062479 105.021294 
L 326.341818 104.001888 
L 329.621157 102.983483 
L 332.900496 101.967748 
L 336.179835 100.953244 
L 339.459174 99.940573 
L 342.738512 98.929836 
L 346.017851 97.920221 
L 349.29719 96.913002 
L 352.576529 95.906351 
L 355.855868 94.902323 
L 359.135207 93.898504 
L 362.414545 92.897322 
L 365.693884 91.896183 
L 368.973223 90.897565 
L 372.252562 89.899002 
L 375.531901 88.902677 
L 378.81124 87.906577 
L 382.090579 86.912342 
L 385.369917 85.91866 
L 388.649256 84.926308 
L 391.928595 83.934987 
L 395.207934 82.944315 
L 398.487273 81.955296 
" style="fill:none;stroke:#9467bd;stroke-linecap:square;stroke-width:1.5;"/>
   </g>
   <g id="line2d_30">
    <path clip-path="url(#pb8d7fa09e7)" d="M 73.832727 295.488 
L 77.112066 277.655146 
L 80.391405 259.822292 
L 83.670744 241.989437 
L 86.950083 224.156583 
L 90.229421 206.323729 
L 93.50876 192.991422 
L 96.788099 189.472561 
L 100.067438 186.669362 
L 103.346777 184.15044 
L 106.626116 181.801436 
L 109.905455 179.571424 
L 113.184793 177.43239 
L 116.464132 175.366935 
L 119.743471 173.363139 
L 123.02281 171.412259 
L 126.302149 169.507943 
L 129.581488 167.644603 
L 132.860826 165.818269 
L 136.140165 164.025472 
L 139.419504 162.263091 
L 142.698843 160.528434 
L 145.978182 158.819897 
L 149.257521 157.135017 
L 152.53686 155.472834 
L 155.816198 153.831506 
L 159.095537 152.209889 
L 162.374876 150.607066 
L 165.654215 149.02303 
L 168.933554 147.456207 
L 172.212893 145.905212 
L 175.492231 144.368361 
L 178.77157 142.854816 
L 182.050909 141.359164 
L 185.330248 139.876485 
L 188.609587 138.405256 
L 191.888926 136.944498 
L 195.168264 135.493308 
L 198.447603 134.051236 
L 201.726942 132.617655 
L 205.006281 131.193774 
L 208.28562 129.780235 
L 211.564959 128.374714 
L 214.844298 126.976997 
L 218.123636 125.5854 
L 221.402975 124.200712 
L 224.682314 122.82135 
L 227.961653 121.446975 
L 231.240992 120.077794 
L 234.520331 118.71396 
L 237.799669 117.355114 
L 241.079008 116.001037 
L 244.358347 114.651386 
L 247.637686 113.305989 
L 250.917025 111.9645 
L 254.196364 110.626645 
L 257.475702 109.292116 
L 260.755041 107.960686 
L 264.03438 106.632194 
L 267.313719 105.306499 
L 270.593058 103.98351 
L 273.872397 102.663109 
L 277.151736 101.345113 
L 280.431074 100.029843 
L 283.710413 98.717072 
L 286.989752 97.406343 
L 290.269091 96.097474 
L 293.54843 94.790389 
L 296.827769 93.485573 
L 300.107107 92.182165 
L 303.386446 90.880076 
L 306.665785 89.579838 
L 309.945124 88.281142 
L 313.224463 86.983495 
L 316.503802 85.687441 
L 319.78314 84.392715 
L 323.062479 83.098775 
L 326.341818 81.806534 
L 329.621157 80.515084 
L 332.900496 79.22459 
L 336.179835 77.93538 
L 339.459174 76.6466 
L 342.738512 75.359324 
L 346.017851 74.072366 
L 349.29719 72.786532 
L 352.576529 71.501191 
L 355.855868 70.216704 
L 359.135207 68.932792 
L 362.414545 67.649577 
L 365.693884 66.366924 
L 368.973223 65.084887 
L 372.252562 63.803334 
L 375.531901 62.522403 
L 378.81124 61.241818 
L 382.090579 59.961928 
L 385.369917 58.682185 
L 388.649256 57.403228 
L 391.928595 56.124272 
L 395.207934 54.846098 
L 398.487273 53.568 
" style="fill:none;stroke:#8c564b;stroke-linecap:square;stroke-width:1.5;"/>
   </g>
   <g id="patch_3">
    <path d="M 57.6 307.584 
L 57.6 41.472 
" style="fill:none;stroke:#000000;stroke-linecap:square;stroke-linejoin:miter;stroke-width:0.8;"/>
   </g>
   <g id="patch_4">
    <path d="M 414.72 307.584 
L 414.72 41.472 
" style="fill:none;stroke:#000000;stroke-linecap:square;stroke-linejoin:miter;stroke-width:0.8;"/>
   </g>
   <g id="patch_5">
    <path d="M 57.6 307.584 
L 414.72 307.584 
" style="fill:none;stroke:#000000;stroke-linecap:square;stroke-linejoin:miter;stroke-width:0.8;"/>
   </g>
   <g id="patch_6">
    <path d="M 57.6 41.472 
L 414.72 41.472 
" style="fill:none;stroke:#000000;stroke-linecap:square;stroke-linejoin:miter;stroke-width:0.8;"/>
   </g>
   <g id="legend_1">
    <g id="patch_7">
     <path d="M 64.6 137.54075 
L 143.403125 137.54075 
Q 145.403125 137.54075 145.403125 135.54075 
L 145.403125 48.472 
Q 145.403125 46.472 143.403125 46.472 
L 64.6 46.472 
Q 62.6 46.472 62.6 48.472 
L 62.6 135.54075 
Q 62.6 137.54075 64.6 137.54075 
z
" style="fill:#ffffff;opacity:0.8;stroke:#cccccc;stroke-linejoin:miter;"/>
    </g>
    <g id="line2d_31">
     <path d="M 66.6 54.570438 
L 86.6 54.570438 
" style="fill:none;stroke:#1f77b4;stroke-linecap:square;stroke-width:1.5;"/>
    </g>
    <g id="line2d_32"/>
    <g id="text_15">
     <!-- Age = 30 -->
     <defs>
      <path d="M 34.1875 63.1875 
L 20.796875 26.90625 
L 47.609375 26.90625 
z
M 28.609375 72.90625 
L 39.796875 72.90625 
L 67.578125 0 
L 57.328125 0 
L 50.6875 18.703125 
L 17.828125 18.703125 
L 11.1875 0 
L 0.78125 0 
z
" id="DejaVuSans-65"/>
      <path d="M 45.40625 27.984375 
Q 45.40625 37.75 41.375 43.109375 
Q 37.359375 48.484375 30.078125 48.484375 
Q 22.859375 48.484375 18.828125 43.109375 
Q 14.796875 37.75 14.796875 27.984375 
Q 14.796875 18.265625 18.828125 12.890625 
Q 22.859375 7.515625 30.078125 7.515625 
Q 37.359375 7.515625 41.375 12.890625 
Q 45.40625 18.265625 45.40625 27.984375 
z
M 54.390625 6.78125 
Q 54.390625 -7.171875 48.1875 -13.984375 
Q 42 -20.796875 29.203125 -20.796875 
Q 24.46875 -20.796875 20.265625 -20.09375 
Q 16.0625 -19.390625 12.109375 -17.921875 
L 12.109375 -9.1875 
Q 16.0625 -11.328125 19.921875 -12.34375 
Q 23.78125 -13.375 27.78125 -13.375 
Q 36.625 -13.375 41.015625 -8.765625 
Q 45.40625 -4.15625 45.40625 5.171875 
L 45.40625 9.625 
Q 42.625 4.78125 38.28125 2.390625 
Q 33.9375 0 27.875 0 
Q 17.828125 0 11.671875 7.65625 
Q 5.515625 15.328125 5.515625 27.984375 
Q 5.515625 40.671875 11.671875 48.328125 
Q 17.828125 56 27.875 56 
Q 33.9375 56 38.28125 53.609375 
Q 42.625 51.21875 45.40625 46.390625 
L 45.40625 54.6875 
L 54.390625 54.6875 
z
" id="DejaVuSans-103"/>
      <path id="DejaVuSans-32"/>
      <path d="M 10.59375 45.40625 
L 73.1875 45.40625 
L 73.1875 37.203125 
L 10.59375 37.203125 
z
M 10.59375 25.484375 
L 73.1875 25.484375 
L 73.1875 17.1875 
L 10.59375 17.1875 
z
" id="DejaVuSans-61"/>
     </defs>
     <g transform="translate(94.6 58.070438)scale(0.1 -0.1)">
      <use xlink:href="#DejaVuSans-65"/>
      <use x="68.408203" xlink:href="#DejaVuSans-103"/>
      <use x="131.884766" xlink:href="#DejaVuSans-101"/>
      <use x="193.408203" xlink:href="#DejaVuSans-32"/>
      <use x="225.195312" xlink:href="#DejaVuSans-61"/>
      <use x="308.984375" xlink:href="#DejaVuSans-32"/>
      <use x="340.771484" xlink:href="#DejaVuSans-51"/>
      <use x="404.394531" xlink:href="#DejaVuSans-48"/>
     </g>
    </g>
    <g id="line2d_33">
     <path d="M 66.6 69.248563 
L 86.6 69.248563 
" style="fill:none;stroke:#ff7f0e;stroke-linecap:square;stroke-width:1.5;"/>
    </g>
    <g id="line2d_34"/>
    <g id="text_16">
     <!-- Age = 40 -->
     <g transform="translate(94.6 72.748563)scale(0.1 -0.1)">
      <use xlink:href="#DejaVuSans-65"/>
      <use x="68.408203" xlink:href="#DejaVuSans-103"/>
      <use x="131.884766" xlink:href="#DejaVuSans-101"/>
      <use x="193.408203" xlink:href="#DejaVuSans-32"/>
      <use x="225.195312" xlink:href="#DejaVuSans-61"/>
      <use x="308.984375" xlink:href="#DejaVuSans-32"/>
      <use x="340.771484" xlink:href="#DejaVuSans-52"/>
      <use x="404.394531" xlink:href="#DejaVuSans-48"/>
     </g>
    </g>
    <g id="line2d_35">
     <path d="M 66.6 83.926688 
L 86.6 83.926688 
" style="fill:none;stroke:#2ca02c;stroke-linecap:square;stroke-width:1.5;"/>
    </g>
    <g id="line2d_36"/>
    <g id="text_17">
     <!-- Age = 50 -->
     <g transform="translate(94.6 87.426688)scale(0.1 -0.1)">
      <use xlink:href="#DejaVuSans-65"/>
      <use x="68.408203" xlink:href="#DejaVuSans-103"/>
      <use x="131.884766" xlink:href="#DejaVuSans-101"/>
      <use x="193.408203" xlink:href="#DejaVuSans-32"/>
      <use x="225.195312" xlink:href="#DejaVuSans-61"/>
      <use x="308.984375" xlink:href="#DejaVuSans-32"/>
      <use x="340.771484" xlink:href="#DejaVuSans-53"/>
      <use x="404.394531" xlink:href="#DejaVuSans-48"/>
     </g>
    </g>
    <g id="line2d_37">
     <path d="M 66.6 98.604813 
L 86.6 98.604813 
" style="fill:none;stroke:#d62728;stroke-linecap:square;stroke-width:1.5;"/>
    </g>
    <g id="line2d_38"/>
    <g id="text_18">
     <!-- Age = 60 -->
     <defs>
      <path d="M 33.015625 40.375 
Q 26.375 40.375 22.484375 35.828125 
Q 18.609375 31.296875 18.609375 23.390625 
Q 18.609375 15.53125 22.484375 10.953125 
Q 26.375 6.390625 33.015625 6.390625 
Q 39.65625 6.390625 43.53125 10.953125 
Q 47.40625 15.53125 47.40625 23.390625 
Q 47.40625 31.296875 43.53125 35.828125 
Q 39.65625 40.375 33.015625 40.375 
z
M 52.59375 71.296875 
L 52.59375 62.3125 
Q 48.875 64.0625 45.09375 64.984375 
Q 41.3125 65.921875 37.59375 65.921875 
Q 27.828125 65.921875 22.671875 59.328125 
Q 17.53125 52.734375 16.796875 39.40625 
Q 19.671875 43.65625 24.015625 45.921875 
Q 28.375 48.1875 33.59375 48.1875 
Q 44.578125 48.1875 50.953125 41.515625 
Q 57.328125 34.859375 57.328125 23.390625 
Q 57.328125 12.15625 50.6875 5.359375 
Q 44.046875 -1.421875 33.015625 -1.421875 
Q 20.359375 -1.421875 13.671875 8.265625 
Q 6.984375 17.96875 6.984375 36.375 
Q 6.984375 53.65625 15.1875 63.9375 
Q 23.390625 74.21875 37.203125 74.21875 
Q 40.921875 74.21875 44.703125 73.484375 
Q 48.484375 72.75 52.59375 71.296875 
z
" id="DejaVuSans-54"/>
     </defs>
     <g transform="translate(94.6 102.104813)scale(0.1 -0.1)">
      <use xlink:href="#DejaVuSans-65"/>
      <use x="68.408203" xlink:href="#DejaVuSans-103"/>
      <use x="131.884766" xlink:href="#DejaVuSans-101"/>
      <use x="193.408203" xlink:href="#DejaVuSans-32"/>
      <use x="225.195312" xlink:href="#DejaVuSans-61"/>
      <use x="308.984375" xlink:href="#DejaVuSans-32"/>
      <use x="340.771484" xlink:href="#DejaVuSans-54"/>
      <use x="404.394531" xlink:href="#DejaVuSans-48"/>
     </g>
    </g>
    <g id="line2d_39">
     <path d="M 66.6 113.282938 
L 86.6 113.282938 
" style="fill:none;stroke:#9467bd;stroke-linecap:square;stroke-width:1.5;"/>
    </g>
    <g id="line2d_40"/>
    <g id="text_19">
     <!-- Age = 70 -->
     <defs>
      <path d="M 8.203125 72.90625 
L 55.078125 72.90625 
L 55.078125 68.703125 
L 28.609375 0 
L 18.3125 0 
L 43.21875 64.59375 
L 8.203125 64.59375 
z
" id="DejaVuSans-55"/>
     </defs>
     <g transform="translate(94.6 116.782938)scale(0.1 -0.1)">
      <use xlink:href="#DejaVuSans-65"/>
      <use x="68.408203" xlink:href="#DejaVuSans-103"/>
      <use x="131.884766" xlink:href="#DejaVuSans-101"/>
      <use x="193.408203" xlink:href="#DejaVuSans-32"/>
      <use x="225.195312" xlink:href="#DejaVuSans-61"/>
      <use x="308.984375" xlink:href="#DejaVuSans-32"/>
      <use x="340.771484" xlink:href="#DejaVuSans-55"/>
      <use x="404.394531" xlink:href="#DejaVuSans-48"/>
     </g>
    </g>
    <g id="line2d_41">
     <path d="M 66.6 127.961063 
L 86.6 127.961063 
" style="fill:none;stroke:#8c564b;stroke-linecap:square;stroke-width:1.5;"/>
    </g>
    <g id="line2d_42"/>
    <g id="text_20">
     <!-- Age = 80 -->
     <defs>
      <path d="M 31.78125 34.625 
Q 24.75 34.625 20.71875 30.859375 
Q 16.703125 27.09375 16.703125 20.515625 
Q 16.703125 13.921875 20.71875 10.15625 
Q 24.75 6.390625 31.78125 6.390625 
Q 38.8125 6.390625 42.859375 10.171875 
Q 46.921875 13.96875 46.921875 20.515625 
Q 46.921875 27.09375 42.890625 30.859375 
Q 38.875 34.625 31.78125 34.625 
z
M 21.921875 38.8125 
Q 15.578125 40.375 12.03125 44.71875 
Q 8.5 49.078125 8.5 55.328125 
Q 8.5 64.0625 14.71875 69.140625 
Q 20.953125 74.21875 31.78125 74.21875 
Q 42.671875 74.21875 48.875 69.140625 
Q 55.078125 64.0625 55.078125 55.328125 
Q 55.078125 49.078125 51.53125 44.71875 
Q 48 40.375 41.703125 38.8125 
Q 48.828125 37.15625 52.796875 32.3125 
Q 56.78125 27.484375 56.78125 20.515625 
Q 56.78125 9.90625 50.3125 4.234375 
Q 43.84375 -1.421875 31.78125 -1.421875 
Q 19.734375 -1.421875 13.25 4.234375 
Q 6.78125 9.90625 6.78125 20.515625 
Q 6.78125 27.484375 10.78125 32.3125 
Q 14.796875 37.15625 21.921875 38.8125 
z
M 18.3125 54.390625 
Q 18.3125 48.734375 21.84375 45.5625 
Q 25.390625 42.390625 31.78125 42.390625 
Q 38.140625 42.390625 41.71875 45.5625 
Q 45.3125 48.734375 45.3125 54.390625 
Q 45.3125 60.0625 41.71875 63.234375 
Q 38.140625 66.40625 31.78125 66.40625 
Q 25.390625 66.40625 21.84375 63.234375 
Q 18.3125 60.0625 18.3125 54.390625 
z
" id="DejaVuSans-56"/>
     </defs>
     <g transform="translate(94.6 131.461063)scale(0.1 -0.1)">
      <use xlink:href="#DejaVuSans-65"/>
      <use x="68.408203" xlink:href="#DejaVuSans-103"/>
      <use x="131.884766" xlink:href="#DejaVuSans-101"/>
      <use x="193.408203" xlink:href="#DejaVuSans-32"/>
      <use x="225.195312" xlink:href="#DejaVuSans-61"/>
      <use x="308.984375" xlink:href="#DejaVuSans-32"/>
      <use x="340.771484" xlink:href="#DejaVuSans-56"/>
      <use x="404.394531" xlink:href="#DejaVuSans-48"/>
     </g>
    </g>
   </g>
  </g>
 </g>
 <defs>
  <clipPath id="pb8d7fa09e7">
   <rect height="266.112" width="357.12" x="57.6" y="41.472"/>
  </clipPath>
 </defs>
</svg>
